<svg version="1.1" xmlns="http://www.w3.org/2000/svg" viewBox="0 0 2550.827554976296 1145.3918680591519" width="7652.482664928888" height="3436.1756041774556" filter="invert(93%) hue-rotate(180deg)">
  <!-- svg-source:excalidraw -->
  
  <defs>
    <style class="style-fonts">
      @font-face {
        font-family: "Virgil";
        src: url("https://excalidraw.com/Virgil.woff2");
      }
      @font-face {
        font-family: "Cascadia";
        src: url("https://excalidraw.com/Cascadia.woff2");
      }
      @font-face {
        font-family: "Assistant";
        src: url("https://excalidraw.com/Assistant-Regular.woff2");
      }
    </style>
    
  </defs>
  <rect x="0" y="0" width="2550.827554976296" height="1145.3918680591519" fill="#ffffff"></rect><g stroke-linecap="round"><g transform="translate(20.965873229483805 180.66291789440288) rotate(0 1156.0185714593215 4.50192976831886)"><path d="M-0.94 0.61 C384.35 2.39, 1926.04 8.79, 2311.52 10.09" stroke="#1e1e1e" stroke-width="2.5" fill="none" stroke-dasharray="8 10"></path></g></g><mask></mask><g transform="translate(30.222284735335506 148.57518298632817) rotate(0 99.609375 12)"><text x="0" y="0" font-family="Cascadia, Segoe UI Emoji" font-size="20px" fill="#1e1e1e" text-anchor="start" style="white-space: pre;" direction="ltr" dominant-baseline="text-before-edge">delivery database</text></g><g stroke-linecap="round" transform="translate(438.5761962606939 10) rotate(0 92.78707811657864 58)"><path d="M55.8 4.51 C66.22 0.8, 81.13 -0.24, 93.97 0.04 C106.81 0.33, 121.3 2.87, 132.83 6.24 C144.37 9.61, 155.15 14.4, 163.21 20.26 C171.27 26.12, 177.73 33.86, 181.2 41.41 C184.68 48.96, 185.65 57.81, 184.05 65.56 C182.44 73.32, 178.04 81.23, 171.59 87.95 C165.14 94.66, 155.44 101.27, 145.36 105.84 C135.27 110.41, 123.5 113.99, 111.08 115.37 C98.67 116.74, 83.21 115.76, 70.88 114.07 C58.55 112.39, 46.89 109.93, 37.1 105.26 C27.31 100.58, 18.27 93.06, 12.14 86.04 C6 79.01, 1.32 71.07, 0.29 63.1 C-0.73 55.13, 1.98 45.8, 5.99 38.22 C10 30.65, 15.61 23.2, 24.36 17.63 C33.1 12.06, 52.35 6.87, 58.48 4.81 C64.62 2.76, 60.42 4.46, 61.19 5.3 M47.96 7.01 C57.57 2.81, 71.38 0.45, 84 -0.14 C96.63 -0.74, 111.77 0.71, 123.74 3.45 C135.7 6.19, 146.4 10.78, 155.78 16.3 C165.16 21.82, 175.2 29.14, 180 36.55 C184.79 43.96, 185.11 53.03, 184.56 60.76 C184.02 68.48, 181.97 75.95, 176.71 82.9 C171.46 89.86, 162.44 97.2, 153.04 102.49 C143.65 107.78, 132.52 112.55, 120.34 114.67 C108.17 116.79, 92.54 116.28, 79.98 115.2 C67.42 114.13, 55.82 112.48, 44.98 108.23 C34.15 103.99, 22.11 96.16, 14.98 89.72 C7.86 83.29, 4.09 76.95, 2.23 69.63 C0.37 62.32, 0.96 53.64, 3.83 45.84 C6.69 38.04, 12 29.41, 19.41 22.86 C26.81 16.31, 43.03 9.24, 48.25 6.54 C53.48 3.85, 49.95 5.55, 50.76 6.71" stroke="#1e1e1e" stroke-width="2" fill="none"></path></g><g transform="translate(472.65915223455386 31.987806691180253) rotate(0 58.59375 36)"><text x="58.59375" y="0" font-family="Cascadia, Segoe UI Emoji" font-size="20px" fill="#1e1e1e" text-anchor="middle" style="white-space: pre;" direction="ltr" dominant-baseline="text-before-edge">compliance</text><text x="58.59375" y="24" font-family="Cascadia, Segoe UI Emoji" font-size="20px" fill="#1e1e1e" text-anchor="middle" style="white-space: pre;" direction="ltr" dominant-baseline="text-before-edge">snapshots</text><text x="58.59375" y="48" font-family="Cascadia, Segoe UI Emoji" font-size="20px" fill="#1e1e1e" text-anchor="middle" style="white-space: pre;" direction="ltr" dominant-baseline="text-before-edge">(CS)</text></g><g stroke-linecap="round" transform="translate(1746.8644955741352 34.830510346278174) rotate(0 94.84043449889032 51.32906171612399)"><path d="M78.77 0.11 C91.3 -1.83, 107.33 -0.88, 120.51 1.36 C133.69 3.6, 147.5 8.69, 157.86 13.54 C168.21 18.39, 177.43 23.69, 182.64 30.46 C187.85 37.22, 189.72 46.46, 189.14 54.12 C188.55 61.78, 185.61 69.95, 179.12 76.42 C172.64 82.89, 161.49 88.55, 150.21 92.95 C138.93 97.34, 125.1 101.58, 111.46 102.78 C97.82 103.97, 81.71 102.31, 68.36 100.09 C55.01 97.88, 41.37 94.36, 31.35 89.48 C21.33 84.59, 13.33 77.42, 8.25 70.78 C3.16 64.15, 0.21 57.17, 0.83 49.67 C1.45 42.18, 5.54 32.6, 11.96 25.8 C18.37 19, 26.42 13.17, 39.33 8.88 C52.23 4.59, 79.24 1.38, 89.36 0.06 C99.48 -1.27, 99.9 0.05, 100.05 0.92 M68.89 1.1 C81.13 -1.85, 98.11 -0.52, 111.51 0.85 C124.91 2.21, 138.19 4.86, 149.28 9.29 C160.36 13.72, 171.13 21.08, 178.01 27.45 C184.89 33.81, 189.84 40.14, 190.57 47.47 C191.29 54.79, 187.58 64.61, 182.34 71.38 C177.11 78.15, 169.49 83.1, 159.17 88.08 C148.85 93.05, 133.53 98.72, 120.42 101.25 C107.3 103.78, 93.59 104.52, 80.48 103.24 C67.36 101.97, 53.09 98.11, 41.72 93.59 C30.34 89.08, 19.23 82.44, 12.22 76.15 C5.22 69.86, 0.77 63.19, -0.32 55.85 C-1.41 48.52, 0.19 39.25, 5.69 32.15 C11.18 25.05, 22.35 18.05, 32.66 13.24 C42.96 8.42, 61.38 4.78, 67.52 3.26 C73.66 1.73, 69.19 3.5, 69.5 4.06" stroke="#1e1e1e" stroke-width="2" fill="none"></path></g><g transform="translate(1794.7676157081814 62.36444445098812) rotate(0 46.875 24)"><text x="46.875" y="0" font-family="Cascadia, Segoe UI Emoji" font-size="20px" fill="#1e1e1e" text-anchor="middle" style="white-space: pre;" direction="ltr" dominant-baseline="text-before-edge">license</text><text x="46.875" y="24" font-family="Cascadia, Segoe UI Emoji" font-size="20px" fill="#1e1e1e" text-anchor="middle" style="white-space: pre;" direction="ltr" dominant-baseline="text-before-edge">findings</text></g><g stroke-linecap="round" transform="translate(2023.3622638613429 36.06946211968659) rotate(0 94.84043449889032 51.32906171612399)"><path d="M119.58 2.16 C132.25 3.33, 146.23 8.61, 156.69 13.42 C167.14 18.23, 176.69 24.32, 182.29 31 C187.9 37.69, 191.09 46.03, 190.31 53.54 C189.54 61.04, 184.27 69.34, 177.64 76.02 C171.01 82.71, 161.43 89.39, 150.52 93.65 C139.6 97.91, 125.62 100.43, 112.14 101.6 C98.65 102.77, 82.88 102.52, 69.62 100.67 C56.35 98.83, 42.92 95.54, 32.54 90.53 C22.17 85.53, 12.79 77.6, 7.37 70.64 C1.96 63.68, -0.57 56.01, 0.05 48.77 C0.66 41.52, 4.53 33.52, 11.07 27.17 C17.62 20.83, 28.08 15.08, 39.31 10.68 C50.54 6.28, 63.49 1.98, 78.45 0.76 C93.42 -0.45, 119.28 2.29, 129.1 3.38 C138.92 4.46, 137.92 6.6, 137.37 7.28 M135.29 5 C147.41 7.24, 159.63 12.36, 168.24 18.27 C176.84 24.17, 183.54 32.93, 186.92 40.4 C190.3 47.87, 191.19 56.2, 188.52 63.06 C185.85 69.92, 179.48 75.59, 170.89 81.55 C162.29 87.52, 149.53 95.37, 136.97 98.85 C124.4 102.34, 109.14 102.59, 95.49 102.46 C81.85 102.34, 67.5 101.35, 55.11 98.12 C42.72 94.88, 30.1 88.75, 21.17 83.04 C12.23 77.34, 4.43 70.86, 1.5 63.9 C-1.44 56.93, 0.46 48.42, 3.55 41.27 C6.64 34.13, 11.57 27.16, 20.03 21.02 C28.5 14.87, 42.24 8.01, 54.33 4.41 C66.42 0.82, 78.9 -0.71, 92.59 -0.54 C106.28 -0.37, 129.71 4.42, 136.45 5.43 C143.18 6.44, 133.89 4.91, 132.99 5.54" stroke="#1e1e1e" stroke-width="2" fill="none"></path></g><g transform="translate(2071.2653839953896 63.60339622439653) rotate(0 46.875 24)"><text x="46.875" y="0" font-family="Cascadia, Segoe UI Emoji" font-size="20px" fill="#1e1e1e" text-anchor="middle" style="white-space: pre;" direction="ltr" dominant-baseline="text-before-edge">cve</text><text x="46.875" y="24" font-family="Cascadia, Segoe UI Emoji" font-size="20px" fill="#1e1e1e" text-anchor="middle" style="white-space: pre;" direction="ltr" dominant-baseline="text-before-edge">findings</text></g><g transform="translate(2353.327554976296 166.79414269731785) rotate(0 93.75 24)"><text x="0" y="0" font-family="Cascadia, Segoe UI Emoji" font-size="20px" fill="#1e1e1e" text-anchor="start" style="white-space: pre;" direction="ltr" dominant-baseline="text-before-edge">access via</text><text x="0" y="24" font-family="Cascadia, Segoe UI Emoji" font-size="20px" fill="#1e1e1e" text-anchor="start" style="white-space: pre;" direction="ltr" dominant-baseline="text-before-edge">delivery service</text></g><g transform="translate(14.667404417715261 932.9572240076378) rotate(0 82.03125 12)"><text x="0" y="0" font-family="Cascadia, Segoe UI Emoji" font-size="20px" fill="#1e1e1e" text-anchor="start" style="white-space: pre;" direction="ltr" dominant-baseline="text-before-edge">ocm repository</text></g><g stroke-linecap="round" transform="translate(302.5361564824939 1017.0294426722515) rotate(0 143.51919870912616 59.18121269345011)"><path d="M83.6 6.07 C97.78 2.59, 117.72 1.11, 134.69 0.69 C151.66 0.26, 168.95 1.4, 185.44 3.52 C201.93 5.65, 219.9 9.01, 233.62 13.41 C247.33 17.82, 259.19 23.9, 267.72 29.97 C276.25 36.03, 282.09 42.98, 284.8 49.82 C287.52 56.66, 287.5 64.08, 284.01 71.01 C280.52 77.93, 273.33 85.36, 263.85 91.38 C254.37 97.39, 241.19 102.81, 227.13 107.07 C213.07 111.33, 196.07 114.97, 179.5 116.94 C162.93 118.92, 145.01 119.71, 127.71 118.91 C110.42 118.12, 91.24 115.78, 75.74 112.18 C60.23 108.59, 45.83 102.99, 34.69 97.35 C23.55 91.71, 14.66 84.86, 8.87 78.33 C3.09 71.81, -0.47 65.11, -0.04 58.19 C0.39 51.28, 4.87 43.42, 11.45 36.85 C18.03 30.29, 25.17 24.57, 39.43 18.78 C53.69 12.99, 84.57 4.69, 97.02 2.11 C109.47 -0.46, 113.14 2.28, 114.1 3.31 M198.79 3.19 C215.01 4.69, 230.35 11.04, 242.89 16.29 C255.43 21.53, 266.93 28.37, 274.03 34.68 C281.13 40.99, 284.39 47.1, 285.5 54.12 C286.6 61.14, 285.69 69.96, 280.64 76.79 C275.59 83.61, 265.58 89.31, 255.18 95.08 C244.78 100.85, 232.78 107.44, 218.24 111.42 C203.7 115.41, 185.18 117.84, 167.94 119.02 C150.71 120.19, 131.81 120.42, 114.82 118.5 C97.82 116.58, 80.57 111.58, 65.98 107.51 C51.39 103.44, 37.36 99.69, 27.27 94.08 C17.18 88.47, 9.72 80.82, 5.44 73.86 C1.15 66.9, -0.32 59.51, 1.56 52.32 C3.44 45.13, 8.81 36.74, 16.72 30.71 C24.62 24.68, 36.13 20.5, 48.99 16.15 C61.85 11.8, 77.88 7.3, 93.87 4.61 C109.87 1.92, 127.62 0.21, 144.94 0.03 C162.25 -0.16, 189.15 2.34, 197.74 3.48 C206.34 4.63, 197.23 5.97, 196.5 6.89" stroke="#1e1e1e" stroke-width="2" fill="none"></path></g><g transform="translate(387.4782065539375 1064.3632185513197) rotate(0 58.59375 12)"><text x="58.59375" y="0" font-family="Cascadia, Segoe UI Emoji" font-size="20px" fill="#1e1e1e" text-anchor="middle" style="white-space: pre;" direction="ltr" dominant-baseline="text-before-edge">components</text></g><g stroke-linecap="round" transform="translate(445.8829932640583 966.8250569166327) rotate(0 94.84043449889032 51.32906171612399)"><path d="M117.58 1.35 C130.35 2.37, 144.64 7.59, 155.1 12.37 C165.56 17.15, 174.54 23.54, 180.35 30.04 C186.16 36.53, 190.04 43.78, 189.96 51.32 C189.87 58.85, 186.08 68.5, 179.83 75.25 C173.58 82, 163.52 87.54, 152.44 91.82 C141.37 96.09, 126.93 99.37, 113.39 100.92 C99.86 102.48, 84.31 102.94, 71.23 101.14 C58.16 99.33, 45.29 94.86, 34.96 90.11 C24.63 85.35, 15.08 79.26, 9.24 72.63 C3.41 65.99, -0.18 57.59, -0.06 50.29 C0.06 42.99, 3.63 35.33, 9.96 28.84 C16.3 22.35, 27.02 15.92, 37.94 11.36 C48.87 6.79, 60.16 2.86, 75.52 1.44 C90.87 0.01, 119.03 1.74, 130.05 2.82 C141.07 3.9, 142.3 6.91, 141.64 7.9 M126.01 2.12 C138.99 3.77, 153.9 8.61, 163.67 13.99 C173.44 19.37, 180.2 27.26, 184.63 34.42 C189.07 41.58, 192.14 49.35, 190.29 56.96 C188.45 64.58, 180.92 73.85, 173.55 80.13 C166.19 86.41, 157.54 90.72, 146.11 94.65 C134.68 98.58, 119.1 102.65, 104.98 103.71 C90.86 104.78, 74.33 103.74, 61.4 101.05 C48.47 98.36, 36.76 93.3, 27.39 87.59 C18.01 81.87, 9.58 73.78, 5.15 66.76 C0.72 59.73, -0.77 52.79, 0.81 45.42 C2.39 38.05, 7.44 28.83, 14.63 22.52 C21.81 16.22, 32.41 11.3, 43.91 7.59 C55.42 3.89, 69.68 1.03, 83.68 0.32 C97.68 -0.4, 120.86 2.88, 127.92 3.31 C134.99 3.74, 126.93 2.38, 126.08 2.89" stroke="none" stroke-width="0" fill="#ffffff"></path><path d="M77.92 0.63 C90.24 -1.53, 105.91 -0.33, 119.22 1.7 C132.53 3.74, 147.3 7.86, 157.79 12.84 C168.28 17.83, 176.85 25, 182.14 31.64 C187.43 38.27, 190.24 45.22, 189.52 52.64 C188.79 60.07, 184.26 69.41, 177.79 76.19 C171.32 82.96, 161.61 88.89, 150.71 93.3 C139.82 97.71, 125.99 101.31, 112.41 102.64 C98.84 103.97, 82.45 103.21, 69.25 101.27 C56.05 99.33, 43.55 95.8, 33.21 91 C22.88 86.2, 12.67 79.52, 7.24 72.49 C1.82 65.46, 0.01 56.43, 0.66 48.84 C1.32 41.25, 4.7 33.31, 11.17 26.95 C17.64 20.59, 25.78 15.3, 39.47 10.68 C53.17 6.07, 82.07 0.64, 93.36 -0.74 C104.66 -2.11, 107.48 1.6, 107.24 2.42 M53.31 4.5 C64.55 0.67, 82.18 -0.68, 95.93 -0.38 C109.69 -0.09, 123.79 2.91, 135.85 6.27 C147.91 9.64, 159.83 14.2, 168.29 19.78 C176.74 25.37, 183.54 32.54, 186.57 39.79 C189.6 47.04, 189.73 55.95, 186.48 63.26 C183.23 70.58, 175.87 78.17, 167.07 83.69 C158.28 89.22, 145.81 93.06, 133.71 96.41 C121.61 99.76, 107.93 103.82, 94.46 103.78 C80.99 103.74, 65.05 99.54, 52.89 96.17 C40.72 92.79, 29.93 88.96, 21.48 83.54 C13.03 78.12, 5.23 71.26, 2.18 63.64 C-0.87 56.03, 0.16 45.5, 3.18 37.87 C6.21 30.23, 11.65 23.32, 20.32 17.82 C28.99 12.31, 49.49 6.91, 55.18 4.84 C60.87 2.77, 53.77 4.49, 54.48 5.38" stroke="#1e1e1e" stroke-width="2" fill="none"></path></g><g transform="translate(487.9267383981046 1006.3589910213426) rotate(0 52.734375 12)"><text x="52.734375" y="0" font-family="Cascadia, Segoe UI Emoji" font-size="20px" fill="#1e1e1e" text-anchor="middle" style="white-space: pre;" direction="ltr" dominant-baseline="text-before-edge">artefacts</text></g><g stroke-linecap="round" transform="translate(386.30873113780353 370.87508983583155) rotate(0 133.04687148565995 165.11895229279162)"><path d="M32 0 C77.18 0.69, 121.83 1.42, 234.09 0 M32 0 C95.99 1.16, 159.23 1.37, 234.09 0 M234.09 0 C254.62 1.98, 266.8 10.99, 266.09 32 M234.09 0 C255.08 0.73, 266.93 8.45, 266.09 32 M266.09 32 C267.21 109.27, 267.45 189.59, 266.09 298.24 M266.09 32 C263.65 93.44, 264.67 152.88, 266.09 298.24 M266.09 298.24 C265.75 319.99, 254.49 330.52, 234.09 330.24 M266.09 298.24 C265.59 318.61, 255.48 331.44, 234.09 330.24 M234.09 330.24 C175.99 330.4, 120.02 328.17, 32 330.24 M234.09 330.24 C184.38 331.35, 136.5 331.92, 32 330.24 M32 330.24 C8.88 330.33, -0.13 321.17, 0 298.24 M32 330.24 C8.94 330.18, -2.02 318.52, 0 298.24 M0 298.24 C-0.22 218.44, 0.72 136.27, 0 32 M0 298.24 C-1.14 232.98, -1.03 168.01, 0 32 M0 32 C0.72 11.4, 8.88 0.44, 32 0 M0 32 C0.56 12.93, 10.42 0.38, 32 0" stroke="#1e1e1e" stroke-width="2" fill="none"></path></g><g transform="translate(391.30873113780353 375.87508983583155) rotate(0 121.875 76.79999999999995)"><text x="0" y="0" font-family="Cascadia, Segoe UI Emoji" font-size="16px" fill="#1e1e1e" text-anchor="start" style="white-space: pre;" direction="ltr" dominant-baseline="text-before-edge"></text><text x="0" y="19.2" font-family="Cascadia, Segoe UI Emoji" font-size="16px" fill="#1e1e1e" text-anchor="start" style="white-space: pre;" direction="ltr" dominant-baseline="text-before-edge"></text><text x="0" y="38.4" font-family="Cascadia, Segoe UI Emoji" font-size="16px" fill="#1e1e1e" text-anchor="start" style="white-space: pre;" direction="ltr" dominant-baseline="text-before-edge"></text><text x="0" y="57.599999999999994" font-family="Cascadia, Segoe UI Emoji" font-size="16px" fill="#1e1e1e" text-anchor="start" style="white-space: pre;" direction="ltr" dominant-baseline="text-before-edge">- runs for each context a </text><text x="0" y="76.8" font-family="Cascadia, Segoe UI Emoji" font-size="16px" fill="#1e1e1e" text-anchor="start" style="white-space: pre;" direction="ltr" dominant-baseline="text-before-edge">separate thread (0)</text><text x="0" y="96" font-family="Cascadia, Segoe UI Emoji" font-size="16px" fill="#1e1e1e" text-anchor="start" style="white-space: pre;" direction="ltr" dominant-baseline="text-before-edge">- create missing CS and </text><text x="0" y="115.19999999999999" font-family="Cascadia, Segoe UI Emoji" font-size="16px" fill="#1e1e1e" text-anchor="start" style="white-space: pre;" direction="ltr" dominant-baseline="text-before-edge">evaluate which CSs are </text><text x="0" y="134.4" font-family="Cascadia, Segoe UI Emoji" font-size="16px" fill="#1e1e1e" text-anchor="start" style="white-space: pre;" direction="ltr" dominant-baseline="text-before-edge">active/inactive (3)</text></g><g mask="url(#mask-dw28qECAKlG8DkcdThGyC)" stroke-linecap="round"><g transform="translate(538.8326109475793 965.2134151415279) rotate(0 -8.143871928202998 -131.19021687558177)"><path d="M0.42 0.17 C-2.29 -43.18, -13.43 -217.39, -16.37 -261.24 M-0.81 -0.78 C-3.69 -44.35, -15.03 -219.24, -17.37 -262.76" stroke="#1e1e1e" stroke-width="2" fill="none"></path></g><g transform="translate(538.8326109475793 965.2134151415279) rotate(0 -8.143871928202998 -131.19021687558177)"><path d="M-7.42 -239.82 C-9.85 -246.69, -11.17 -254.89, -17.37 -262.76 M-7.42 -239.82 C-10.41 -246.61, -11.75 -251.68, -17.37 -262.76" stroke="#1e1e1e" stroke-width="2" fill="none"></path></g><g transform="translate(538.8326109475793 965.2134151415279) rotate(0 -8.143871928202998 -131.19021687558177)"><path d="M-24.49 -238.8 C-21.88 -246.03, -18.16 -254.53, -17.37 -262.76 M-24.49 -238.8 C-23.15 -245.76, -20.16 -251.09, -17.37 -262.76" stroke="#1e1e1e" stroke-width="2" fill="none"></path></g></g><mask id="mask-dw28qECAKlG8DkcdThGyC"><rect x="0" y="0" fill="#fff" width="655.1203548039853" height="1327.5938488926913"></rect><rect x="469.7512390193765" y="805.2231982659459" fill="#000" width="121.875" height="57.599999999999994" opacity="1"></rect></mask><g transform="translate(469.7512390193765 805.2231982659462) rotate(0 60.61017463279404 28.697199609973495)"><text x="60.9375" y="0" font-family="Cascadia, Segoe UI Emoji" font-size="16px" fill="#1e1e1e" text-anchor="middle" style="white-space: pre;" direction="ltr" dominant-baseline="text-before-edge">retrieve</text><text x="60.9375" y="19.2" font-family="Cascadia, Segoe UI Emoji" font-size="16px" fill="#1e1e1e" text-anchor="middle" style="white-space: pre;" direction="ltr" dominant-baseline="text-before-edge">configured</text><text x="60.9375" y="38.4" font-family="Cascadia, Segoe UI Emoji" font-size="16px" fill="#1e1e1e" text-anchor="middle" style="white-space: pre;" direction="ltr" dominant-baseline="text-before-edge">artefacts (1)</text></g><g stroke-linecap="round"><g transform="translate(511.38767762175576 127.31506267237899) rotate(0 -32.65515716421237 121.05831957542512)"><path d="M-0.98 1.19 C-11.65 41.67, -53.81 201.83, -64.5 242.11 M0.7 0.76 C-10.01 41.51, -53.93 203.62, -65.03 243.65" stroke="#1e1e1e" stroke-width="2" fill="none"></path></g><g transform="translate(511.38767762175576 127.31506267237899) rotate(0 -32.65515716421237 121.05831957542512)"><path d="M-67.08 218.73 C-64.73 226.59, -66.17 231.97, -65.03 243.65 M-67.08 218.73 C-66.4 227.26, -65.96 237.41, -65.03 243.65" stroke="#1e1e1e" stroke-width="2" fill="none"></path></g><g transform="translate(511.38767762175576 127.31506267237899) rotate(0 -32.65515716421237 121.05831957542512)"><path d="M-50.58 223.24 C-52.5 229.79, -58.25 233.99, -65.03 243.65 M-50.58 223.24 C-55.89 230.07, -61.46 238.59, -65.03 243.65" stroke="#1e1e1e" stroke-width="2" fill="none"></path></g></g><mask></mask><g transform="translate(409.7849297141902 374.4758401738337) rotate(0 111.328125 24)"><text x="111.328125" y="0" font-family="Cascadia, Segoe UI Emoji" font-size="20px" fill="#1e1e1e" text-anchor="middle" style="white-space: pre;" direction="ltr" dominant-baseline="text-before-edge">artefact enumerator</text><text x="111.328125" y="24" font-family="Cascadia, Segoe UI Emoji" font-size="20px" fill="#1e1e1e" text-anchor="middle" style="white-space: pre;" direction="ltr" dominant-baseline="text-before-edge">(k8s cronjob)</text></g><g stroke-linecap="round"><g transform="translate(580.2573184499365 369.1443716631885) rotate(0 -12.592651926011968 -120.406825350041)"><path d="M-0.09 -0.74 C-4.22 -40.9, -20.73 -201.4, -25.1 -241.49 M-1.6 1.49 C-5.84 -38.48, -22.27 -200.02, -26 -240.31" stroke="#1e1e1e" stroke-width="2" fill="none"></path></g><g transform="translate(580.2573184499365 369.1443716631885) rotate(0 -12.592651926011968 -120.406825350041)"><path d="M-15.2 -217.77 C-19.25 -223.74, -22.09 -231.82, -26 -240.31 M-15.2 -217.77 C-18.26 -224.41, -21.3 -228.77, -26 -240.31" stroke="#1e1e1e" stroke-width="2" fill="none"></path></g><g transform="translate(580.2573184499365 369.1443716631885) rotate(0 -12.592651926011968 -120.406825350041)"><path d="M-32.22 -216.1 C-31.65 -222.51, -29.87 -231.04, -26 -240.31 M-32.22 -216.1 C-30.86 -223.15, -29.51 -227.94, -26 -240.31" stroke="#1e1e1e" stroke-width="2" fill="none"></path></g></g><mask></mask><g transform="translate(573.6924918906525 199.42854016811896) rotate(0 70.3125 28.80000000000001)"><text x="70.3125" y="0" font-family="Cascadia, Segoe UI Emoji" font-size="16px" fill="#1e1e1e" text-anchor="middle" style="white-space: pre;" direction="ltr" dominant-baseline="text-before-edge">delete inactive</text><text x="70.3125" y="19.2" font-family="Cascadia, Segoe UI Emoji" font-size="16px" fill="#1e1e1e" text-anchor="middle" style="white-space: pre;" direction="ltr" dominant-baseline="text-before-edge">CS after grace</text><text x="70.3125" y="38.4" font-family="Cascadia, Segoe UI Emoji" font-size="16px" fill="#1e1e1e" text-anchor="middle" style="white-space: pre;" direction="ltr" dominant-baseline="text-before-edge">period (4)</text></g><g stroke-linecap="round" transform="translate(1074.450775626624 439.99237456944786) rotate(0 98.78352322897081 82)"><path d="M123.75 20.75 C139.05 36.35, 157.01 50.51, 172.82 62.25 M123.75 20.75 C137.4 33.43, 151.95 44.9, 172.82 62.25 M172.82 62.25 C197.86 81.46, 196.45 81.11, 172.82 103.75 M172.82 62.25 C195.76 82.74, 198.11 84.82, 172.82 103.75 M172.82 103.75 C163 114.3, 152.61 121.5, 123.75 143.25 M172.82 103.75 C154.67 118.72, 134.78 135.52, 123.75 143.25 M123.75 143.25 C99.4 164.04, 97.05 162.56, 74.25 143.25 M123.75 143.25 C98.14 165.3, 98.9 162.55, 74.25 143.25 M74.25 143.25 C58.65 130.55, 42.36 119.97, 24.75 103.75 M74.25 143.25 C60.38 131.61, 45.6 120.94, 24.75 103.75 M24.75 103.75 C0.34 83.64, -1.62 84.15, 24.75 62.25 M24.75 103.75 C-1.3 83.61, -1.22 84.99, 24.75 62.25 M24.75 62.25 C42.06 48.12, 58.63 36.76, 74.25 20.75 M24.75 62.25 C40.87 49.93, 54.96 36.51, 74.25 20.75 M74.25 20.75 C99.93 1, 100.97 -0.95, 123.75 20.75 M74.25 20.75 C99.3 2.24, 100.2 -0.33, 123.75 20.75" stroke="#1e1e1e" stroke-width="2" fill="none"></path></g><g transform="translate(1132.3269122411093 485.99237456944786) rotate(0 41.015625 36)"><text x="41.015625" y="0" font-family="Cascadia, Segoe UI Emoji" font-size="20px" fill="#1e1e1e" text-anchor="middle" style="white-space: pre;" direction="ltr" dominant-baseline="text-before-edge">backlog</text><text x="41.015625" y="24" font-family="Cascadia, Segoe UI Emoji" font-size="20px" fill="#1e1e1e" text-anchor="middle" style="white-space: pre;" direction="ltr" dominant-baseline="text-before-edge">item</text><text x="41.015625" y="48" font-family="Cascadia, Segoe UI Emoji" font-size="20px" fill="#1e1e1e" text-anchor="middle" style="white-space: pre;" direction="ltr" dominant-baseline="text-before-edge">(crd)</text></g><g mask="url(#mask-dP-5ugzXT_R0m9kE5Qvsq)" stroke-linecap="round"><g transform="translate(655.6476493900732 525.2167272333894) rotate(0 210.69391247784597 0.13504261001662599)"><path d="M0.27 -0.13 C70.81 -0.15, 352.08 0.29, 422.11 0.51 M-1.04 -1.24 C69.5 -1.7, 350.89 -1.59, 421.54 -1.49" stroke="#1e1e1e" stroke-width="2" fill="none"></path></g><g transform="translate(655.6476493900732 525.2167272333894) rotate(0 210.69391247784597 0.13504261001662599)"><path d="M398.04 7.05 C402.63 6.44, 408.08 1.92, 421.54 -1.49 M398.04 7.05 C407.34 2.95, 416.77 1.1, 421.54 -1.49" stroke="#1e1e1e" stroke-width="2" fill="none"></path></g><g transform="translate(655.6476493900732 525.2167272333894) rotate(0 210.69391247784597 0.13504261001662599)"><path d="M398.05 -10.05 C402.73 -7.14, 408.18 -8.13, 421.54 -1.49 M398.05 -10.05 C407.41 -7.67, 416.83 -3.05, 421.54 -1.49" stroke="#1e1e1e" stroke-width="2" fill="none"></path></g></g><mask id="mask-dP-5ugzXT_R0m9kE5Qvsq"><rect x="0" y="0" fill="#fff" width="1177.0354743457651" height="625.4868124534227"></rect><rect x="721.0290618679192" y="477.35176984340615" fill="#000" width="290.625" height="96" opacity="1"></rect></mask><g transform="translate(721.0290618679192 477.35176984340615) rotate(0 145.15192059378592 47.331884269323496)"><text x="145.3125" y="0" font-family="Cascadia, Segoe UI Emoji" font-size="16px" fill="#1e1e1e" text-anchor="middle" style="white-space: pre;" direction="ltr" dominant-baseline="text-before-edge">create backlog item</text><text x="145.3125" y="19.2" font-family="Cascadia, Segoe UI Emoji" font-size="16px" fill="#1e1e1e" text-anchor="middle" style="white-space: pre;" direction="ltr" dominant-baseline="text-before-edge">for bdba if CS was</text><text x="145.3125" y="38.4" font-family="Cascadia, Segoe UI Emoji" font-size="16px" fill="#1e1e1e" text-anchor="middle" style="white-space: pre;" direction="ltr" dominant-baseline="text-before-edge">just created (priority HIGH) or</text><text x="145.3125" y="57.599999999999994" font-family="Cascadia, Segoe UI Emoji" font-size="16px" fill="#1e1e1e" text-anchor="middle" style="white-space: pre;" direction="ltr" dominant-baseline="text-before-edge">rescan interval</text><text x="145.3125" y="76.8" font-family="Cascadia, Segoe UI Emoji" font-size="16px" fill="#1e1e1e" text-anchor="middle" style="white-space: pre;" direction="ltr" dominant-baseline="text-before-edge">passed (priority LOW) (5)</text></g><g stroke-linecap="round" transform="translate(1399.343329782575 406.19690660765457) rotate(0 133.04687148565995 135.36490533914787)"><path d="M32 0 C76.68 1, 118.62 -0.04, 234.09 0 M32 0 C96.98 1.62, 162.18 1.45, 234.09 0 M234.09 0 C255.61 -1.83, 265.83 9.64, 266.09 32 M234.09 0 C256.89 -2.07, 264.96 9.74, 266.09 32 M266.09 32 C265.92 102.99, 266.31 176.69, 266.09 238.73 M266.09 32 C267.11 109.77, 266.46 185.81, 266.09 238.73 M266.09 238.73 C268.08 258.09, 255.94 271.49, 234.09 270.73 M266.09 238.73 C264.76 261.63, 253.5 269.88, 234.09 270.73 M234.09 270.73 C184.83 271.67, 138.98 270.23, 32 270.73 M234.09 270.73 C191.31 271.48, 150.43 271.84, 32 270.73 M32 270.73 C10.55 270.51, -0.54 261.77, 0 238.73 M32 270.73 C12.07 272.42, 0.54 262.02, 0 238.73 M0 238.73 C-0.71 182.33, 1.98 124.37, 0 32 M0 238.73 C0.9 155.68, 1.1 74.41, 0 32 M0 32 C0.62 12.56, 10.02 1.94, 32 0 M0 32 C-1.4 9.17, 9.63 1.3, 32 0" stroke="#1e1e1e" stroke-width="2" fill="none"></path></g><g transform="translate(1404.343329782575 411.19690660765457) rotate(0 126.5625 86.39999999999998)"><text x="0" y="0" font-family="Cascadia, Segoe UI Emoji" font-size="16px" fill="#1e1e1e" text-anchor="start" style="white-space: pre;" direction="ltr" dominant-baseline="text-before-edge"></text><text x="0" y="19.2" font-family="Cascadia, Segoe UI Emoji" font-size="16px" fill="#1e1e1e" text-anchor="start" style="white-space: pre;" direction="ltr" dominant-baseline="text-before-edge"></text><text x="0" y="38.4" font-family="Cascadia, Segoe UI Emoji" font-size="16px" fill="#1e1e1e" text-anchor="start" style="white-space: pre;" direction="ltr" dominant-baseline="text-before-edge"></text><text x="0" y="57.599999999999994" font-family="Cascadia, Segoe UI Emoji" font-size="16px" fill="#1e1e1e" text-anchor="start" style="white-space: pre;" direction="ltr" dominant-baseline="text-before-edge">- on backlog item change </text><text x="0" y="76.8" font-family="Cascadia, Segoe UI Emoji" font-size="16px" fill="#1e1e1e" text-anchor="start" style="white-space: pre;" direction="ltr" dominant-baseline="text-before-edge">(6):</text><text x="0" y="96" font-family="Cascadia, Segoe UI Emoji" font-size="16px" fill="#1e1e1e" text-anchor="start" style="white-space: pre;" direction="ltr" dominant-baseline="text-before-edge"> -&gt; create/update replica </text><text x="0" y="115.19999999999999" font-family="Cascadia, Segoe UI Emoji" font-size="16px" fill="#1e1e1e" text-anchor="start" style="white-space: pre;" direction="ltr" dominant-baseline="text-before-edge">set (7)</text><text x="0" y="134.4" font-family="Cascadia, Segoe UI Emoji" font-size="16px" fill="#1e1e1e" text-anchor="start" style="white-space: pre;" direction="ltr" dominant-baseline="text-before-edge"> -&gt; remove claim if pod is </text><text x="0" y="153.6" font-family="Cascadia, Segoe UI Emoji" font-size="16px" fill="#1e1e1e" text-anchor="start" style="white-space: pre;" direction="ltr" dominant-baseline="text-before-edge">not existing anymore (8)</text></g><g stroke-linecap="round"><g transform="translate(1270.553557146247 521.0888257564244) rotate(0 63.639911326967194 0.8341108832280497)"><path d="M-1.1 0.87 C20.45 1.33, 107.06 2.46, 128.31 2.45 M0.52 0.29 C22.09 0.43, 106.52 0.5, 127.91 0.73" stroke="#1e1e1e" stroke-width="2" fill="none"></path></g><g transform="translate(1270.553557146247 521.0888257564244) rotate(0 63.639911326967194 0.8341108832280497)"><path d="M104.37 9.16 C110.91 9.28, 115.81 4.31, 127.91 0.73 M104.37 9.16 C109.69 8.01, 115.69 6.22, 127.91 0.73" stroke="#1e1e1e" stroke-width="2" fill="none"></path></g><g transform="translate(1270.553557146247 521.0888257564244) rotate(0 63.639911326967194 0.8341108832280497)"><path d="M104.46 -7.94 C110.93 -4.14, 115.81 -5.44, 127.91 0.73 M104.46 -7.94 C109.63 -5.18, 115.6 -3.05, 127.91 0.73" stroke="#1e1e1e" stroke-width="2" fill="none"></path></g></g><mask></mask><g transform="translate(1292.772098939226 454.50933161117325) rotate(0 32.8125 28.799999999999955)"><text x="32.8125" y="0" font-family="Cascadia, Segoe UI Emoji" font-size="16px" fill="#1e1e1e" text-anchor="middle" style="white-space: pre;" direction="ltr" dominant-baseline="text-before-edge">watch</text><text x="32.8125" y="19.2" font-family="Cascadia, Segoe UI Emoji" font-size="16px" fill="#1e1e1e" text-anchor="middle" style="white-space: pre;" direction="ltr" dominant-baseline="text-before-edge">updates</text><text x="32.8125" y="38.4" font-family="Cascadia, Segoe UI Emoji" font-size="16px" fill="#1e1e1e" text-anchor="middle" style="white-space: pre;" direction="ltr" dominant-baseline="text-before-edge">(6)</text></g><g stroke-linecap="round" transform="translate(1845.6160565495798 421.60464211488136) rotate(0 133.04687148565972 114.76827297394107)"><path d="M32 0 C84.42 0.59, 133.03 1.25, 234.09 0 M32 0 C94.03 1.76, 156.9 1.61, 234.09 0 M234.09 0 C254.76 -1.99, 264.3 11.02, 266.09 32 M234.09 0 C256.2 1.02, 266.08 11.61, 266.09 32 M266.09 32 C265.87 81.42, 264.74 132.77, 266.09 197.54 M266.09 32 C266.67 84.81, 264.8 139.65, 266.09 197.54 M266.09 197.54 C264.19 217.23, 254.6 227.91, 234.09 229.54 M266.09 197.54 C264.28 216.64, 256.36 230.4, 234.09 229.54 M234.09 229.54 C180.24 229.48, 126.28 227.97, 32 229.54 M234.09 229.54 C180.93 229.55, 126.28 230.23, 32 229.54 M32 229.54 C11.04 230.13, -1.21 220.44, 0 197.54 M32 229.54 C8.78 230.98, -1.3 218.8, 0 197.54 M0 197.54 C0.01 136.82, -0.56 74.29, 0 32 M0 197.54 C-0.1 147.17, 0.03 97.75, 0 32 M0 32 C-1.6 10.51, 12.26 0.1, 32 0 M0 32 C-0.35 9.82, 8.9 1.67, 32 0" stroke="#1e1e1e" stroke-width="2" fill="none"></path></g><g transform="translate(1850.6160565495798 426.60464211488136) rotate(0 126.5625 105.60000000000002)"><text x="0" y="0" font-family="Cascadia, Segoe UI Emoji" font-size="16px" fill="#1e1e1e" text-anchor="start" style="white-space: pre;" direction="ltr" dominant-baseline="text-before-edge"></text><text x="0" y="19.2" font-family="Cascadia, Segoe UI Emoji" font-size="16px" fill="#1e1e1e" text-anchor="start" style="white-space: pre;" direction="ltr" dominant-baseline="text-before-edge"></text><text x="0" y="38.4" font-family="Cascadia, Segoe UI Emoji" font-size="16px" fill="#1e1e1e" text-anchor="start" style="white-space: pre;" direction="ltr" dominant-baseline="text-before-edge"></text><text x="0" y="57.599999999999994" font-family="Cascadia, Segoe UI Emoji" font-size="16px" fill="#1e1e1e" text-anchor="start" style="white-space: pre;" direction="ltr" dominant-baseline="text-before-edge">- read and claim backlog </text><text x="0" y="76.8" font-family="Cascadia, Segoe UI Emoji" font-size="16px" fill="#1e1e1e" text-anchor="start" style="white-space: pre;" direction="ltr" dominant-baseline="text-before-edge">item with highest priority </text><text x="0" y="96" font-family="Cascadia, Segoe UI Emoji" font-size="16px" fill="#1e1e1e" text-anchor="start" style="white-space: pre;" direction="ltr" dominant-baseline="text-before-edge">(9)</text><text x="0" y="115.19999999999999" font-family="Cascadia, Segoe UI Emoji" font-size="16px" fill="#1e1e1e" text-anchor="start" style="white-space: pre;" direction="ltr" dominant-baseline="text-before-edge">- scan referenced artefact </text><text x="0" y="134.4" font-family="Cascadia, Segoe UI Emoji" font-size="16px" fill="#1e1e1e" text-anchor="start" style="white-space: pre;" direction="ltr" dominant-baseline="text-before-edge">(10)</text><text x="0" y="153.6" font-family="Cascadia, Segoe UI Emoji" font-size="16px" fill="#1e1e1e" text-anchor="start" style="white-space: pre;" direction="ltr" dominant-baseline="text-before-edge">- delete backlog item and </text><text x="0" y="172.79999999999998" font-family="Cascadia, Segoe UI Emoji" font-size="16px" fill="#1e1e1e" text-anchor="start" style="white-space: pre;" direction="ltr" dominant-baseline="text-before-edge">continue with first step </text><text x="0" y="192" font-family="Cascadia, Segoe UI Emoji" font-size="16px" fill="#1e1e1e" text-anchor="start" style="white-space: pre;" direction="ltr" dominant-baseline="text-before-edge">(12)</text></g><g transform="translate(1880.7644873232875 429.55636195567206) rotate(0 99.60937499999977 24)"><text x="99.609375" y="0" font-family="Cascadia, Segoe UI Emoji" font-size="20px" fill="#1e1e1e" text-anchor="middle" style="white-space: pre;" direction="ltr" dominant-baseline="text-before-edge">bdba worker</text><text x="99.609375" y="24" font-family="Cascadia, Segoe UI Emoji" font-size="20px" fill="#1e1e1e" text-anchor="middle" style="white-space: pre;" direction="ltr" dominant-baseline="text-before-edge">(k8s replica set)</text></g><g mask="url(#mask-nhhvkqFA_5c1XvwfYfPQx)" stroke-linecap="round"><g transform="translate(1668.8807002696099 532.9934438253459) rotate(0 87.0722412553132 0.5473150765345736)"><path d="M-0.17 0.47 C29.01 0.78, 146.02 1.36, 174.98 1.36 M-1.72 -0.34 C27.39 -0.35, 145.42 -0.93, 174.47 -0.62" stroke="#1e1e1e" stroke-width="2" fill="none"></path></g><g transform="translate(1668.8807002696099 532.9934438253459) rotate(0 87.0722412553132 0.5473150765345736)"><path d="M150.96 7.89 C158.56 6.86, 165.02 2.08, 174.47 -0.62 M150.96 7.89 C157.03 6.82, 162.14 4.42, 174.47 -0.62" stroke="#1e1e1e" stroke-width="2" fill="none"></path></g><g transform="translate(1668.8807002696099 532.9934438253459) rotate(0 87.0722412553132 0.5473150765345736)"><path d="M150.99 -9.21 C158.51 -5.31, 164.96 -5.14, 174.47 -0.62 M150.99 -9.21 C157.02 -5.98, 162.12 -4.07, 174.47 -0.62" stroke="#1e1e1e" stroke-width="2" fill="none"></path></g></g><mask id="mask-nhhvkqFA_5c1XvwfYfPQx"><rect x="0" y="0" fill="#fff" width="1943.0251827802363" height="634.0880739784151"></rect><rect x="1713.7654415249235" y="523.9407589018804" fill="#000" width="84.375" height="19.2" opacity="1"></rect></mask><g transform="translate(1713.7654415249235 523.9407589018806) rotate(0 41.74195975135558 9.37960116993861)"><text x="42.1875" y="0" font-family="Cascadia, Segoe UI Emoji" font-size="16px" fill="#1e1e1e" text-anchor="middle" style="white-space: pre;" direction="ltr" dominant-baseline="text-before-edge">scale (7)</text></g><g mask="url(#mask-KpvJBdL01j8ttUrQ7cfAo)" stroke-linecap="round"><g transform="translate(1845.3189169754596 616.2867600204094) rotate(0 -311.587964158919 41.323573551379354)"><path d="M0.45 -0.15 C-51.71 22.4, -208.28 142.78, -312.4 134.27 C-416.53 125.77, -572.62 -20.15, -624.32 -51.2 M-0.78 -1.28 C-53.07 20.99, -209.4 140.43, -312.94 132.34 C-416.48 124.24, -570.51 -19.23, -622.02 -49.85" stroke="#1e1e1e" stroke-width="2" fill="none"></path></g><g transform="translate(1845.3189169754596 616.2867600204094) rotate(0 -311.587964158919 41.323573551379354)"><path d="M-598.02 -42.84 C-606.51 -43.85, -613.95 -49.49, -622.02 -49.85 M-598.02 -42.84 C-605.29 -46.08, -612.65 -46.63, -622.02 -49.85" stroke="#1e1e1e" stroke-width="2" fill="none"></path></g><g transform="translate(1845.3189169754596 616.2867600204094) rotate(0 -311.587964158919 41.323573551379354)"><path d="M-608.14 -29.05 C-613.01 -34.87, -616.96 -45.27, -622.02 -49.85 M-608.14 -29.05 C-612.39 -36.45, -616.65 -41.22, -622.02 -49.85" stroke="#1e1e1e" stroke-width="2" fill="none"></path></g></g><mask id="mask-KpvJBdL01j8ttUrQ7cfAo"><rect x="0" y="0" fill="#fff" width="2568.4948452932977" height="901.471701929959"></rect><rect x="1489.936893992674" y="731.0028045265635" fill="#000" width="84.375" height="38.40000000000004" opacity="1"></rect></mask><g transform="translate(1489.9368939926735 731.0028045265635) rotate(0 43.44691785825603 -72.96453937375702)"><text x="42.1875" y="0" font-family="Cascadia, Segoe UI Emoji" font-size="16.000000000000018px" fill="#1e1e1e" text-anchor="middle" style="white-space: pre;" direction="ltr" dominant-baseline="text-before-edge">read and</text><text x="42.1875" y="19.20000000000002" font-family="Cascadia, Segoe UI Emoji" font-size="16.000000000000018px" fill="#1e1e1e" text-anchor="middle" style="white-space: pre;" direction="ltr" dominant-baseline="text-before-edge">claim (9)</text></g><g transform="translate(1481.8035397057179 788.990526042319) rotate(0 51.5625 9.600000000000023)"><text x="51.5625" y="0" font-family="Cascadia, Segoe UI Emoji" font-size="16px" fill="#1e1e1e" text-anchor="middle" style="white-space: pre;" direction="ltr" dominant-baseline="text-before-edge">delete (12)</text></g><g transform="translate(347.9662684291543 235.45708211223393) rotate(0 56.25 19.19999999999999)"><text x="0" y="0" font-family="Cascadia, Segoe UI Emoji" font-size="16px" fill="#1e1e1e" text-anchor="start" style="white-space: pre;" direction="ltr" dominant-baseline="text-before-edge">retrieve all</text><text x="0" y="19.2" font-family="Cascadia, Segoe UI Emoji" font-size="16px" fill="#1e1e1e" text-anchor="start" style="white-space: pre;" direction="ltr" dominant-baseline="text-before-edge">CS (2)</text></g><g transform="translate(588.7005436171517 307.3900836228148) rotate(0 60.9375 9.600000000000023)"><text x="60.9375" y="0" font-family="Cascadia, Segoe UI Emoji" font-size="16px" fill="#1e1e1e" text-anchor="middle" style="white-space: pre;" direction="ltr" dominant-baseline="text-before-edge">update CS (6)</text></g><g transform="translate(1425.6484149991466 412.002307597881) rotate(0 105.46875 24)"><text x="105.46875" y="0" font-family="Cascadia, Segoe UI Emoji" font-size="20px" fill="#1e1e1e" text-anchor="middle" style="white-space: pre;" direction="ltr" dominant-baseline="text-before-edge">backlog controller</text><text x="105.46875" y="24" font-family="Cascadia, Segoe UI Emoji" font-size="20px" fill="#1e1e1e" text-anchor="middle" style="white-space: pre;" direction="ltr" dominant-baseline="text-before-edge">(k8s controller)</text></g><g transform="translate(1892.3043636954062 218.13548860925016) rotate(0 89.06249999999977 19.19999999999999)"><text x="89.0625" y="0" font-family="Cascadia, Segoe UI Emoji" font-size="16px" fill="#1e1e1e" text-anchor="middle" style="white-space: pre;" direction="ltr" dominant-baseline="text-before-edge">store findings</text><text x="89.0625" y="19.2" font-family="Cascadia, Segoe UI Emoji" font-size="16px" fill="#1e1e1e" text-anchor="middle" style="white-space: pre;" direction="ltr" dominant-baseline="text-before-edge">in delivery db (11)</text></g><g stroke-linecap="round"><g transform="translate(9.43604381084424 928.5633306913909) rotate(0 1156.0185714593215 4.50192976831886)"><path d="M0.56 -0.47 C385.85 1.26, 1926.87 7.95, 2311.98 9.6" stroke="#1e1e1e" stroke-width="2.5" fill="none" stroke-dasharray="8 10"></path></g></g><mask></mask><g transform="translate(2337.8278094245275 909.35026873259) rotate(0 93.75 24)"><text x="0" y="0" font-family="Cascadia, Segoe UI Emoji" font-size="20px" fill="#1e1e1e" text-anchor="start" style="white-space: pre;" direction="ltr" dominant-baseline="text-before-edge">access via</text><text x="0" y="24" font-family="Cascadia, Segoe UI Emoji" font-size="20px" fill="#1e1e1e" text-anchor="start" style="white-space: pre;" direction="ltr" dominant-baseline="text-before-edge">delivery service</text></g><g stroke-linecap="round"><g transform="translate(2004.0512306789929 424.0620006602402) rotate(0 57.77464509308629 -140.42058214558085)"><path d="M0.02 1.14 C19.05 -45.39, 95.06 -233.48, 114.41 -280.3 M-1.42 0.7 C17.93 -46.1, 97.01 -235.09, 116.52 -282.14" stroke="#1e1e1e" stroke-width="2" fill="none"></path></g><g transform="translate(2004.0512306789929 424.0620006602402) rotate(0 57.77464509308629 -140.42058214558085)"><path d="M115.38 -257.16 C117.88 -267.09, 117.25 -272.27, 116.52 -282.14 M115.38 -257.16 C115.82 -266.93, 115.52 -277.23, 116.52 -282.14" stroke="#1e1e1e" stroke-width="2" fill="none"></path></g><g transform="translate(2004.0512306789929 424.0620006602402) rotate(0 57.77464509308629 -140.42058214558085)"><path d="M99.59 -263.74 C107.11 -271.56, 111.55 -274.62, 116.52 -282.14 M99.59 -263.74 C106.17 -270.95, 112.01 -278.69, 116.52 -282.14" stroke="#1e1e1e" stroke-width="2" fill="none"></path></g></g><mask></mask><g stroke-linecap="round"><g transform="translate(1953.601902793745 420.76778980468987) rotate(0 -57.77464509308629 -140.42058214558085)"><path d="M0.95 -1.07 C-18.42 -47.81, -97.15 -234.45, -116.63 -281.12 M-0.01 0.98 C-18.98 -45.52, -95.01 -232.91, -114.49 -279.74" stroke="#1e1e1e" stroke-width="2" fill="none"></path></g><g transform="translate(1953.601902793745 420.76778980468987) rotate(0 -57.77464509308629 -140.42058214558085)"><path d="M-97.66 -261.25 C-103.81 -267.83, -106.96 -271.58, -114.49 -279.74 M-97.66 -261.25 C-101.46 -266.97, -106.44 -271.52, -114.49 -279.74" stroke="#1e1e1e" stroke-width="2" fill="none"></path></g><g transform="translate(1953.601902793745 420.76778980468987) rotate(0 -57.77464509308629 -140.42058214558085)"><path d="M-113.49 -254.76 C-115.39 -263.19, -114.35 -268.66, -114.49 -279.74 M-113.49 -254.76 C-112.93 -262.25, -113.54 -268.59, -114.49 -279.74" stroke="#1e1e1e" stroke-width="2" fill="none"></path></g></g><mask></mask></svg>