<svg version="1.1" xmlns="http://www.w3.org/2000/svg" viewBox="0 0 1538.4546704454087 1179.986384818786" width="1538.4546704454087" height="1179.986384818786">
  <!-- svg-source:excalidraw -->
  
  <defs>
    <style class="style-fonts">
      @font-face {
        font-family: "Virgil";
        src: url("https://excalidraw.com/Virgil.woff2");
      }
      @font-face {
        font-family: "Cascadia";
        src: url("https://excalidraw.com/Cascadia.woff2");
      }
      @font-face {
        font-family: "Assistant";
        src: url("https://excalidraw.com/Assistant-Regular.woff2");
      }
    </style>
    
  </defs>
  <g stroke-linecap="round" transform="translate(10 161.60094938424385) rotate(0 309.72236970974546 485.36755568987724)"><path d="M32 0 C194.4 0.82, 357.99 1.07, 587.44 0 M32 0 C195.46 0.78, 359.37 1.17, 587.44 0 M587.44 0 C610.65 1.17, 618.89 10.33, 619.44 32 M587.44 0 C608.19 0.43, 621.71 12.23, 619.44 32 M619.44 32 C621.39 315.11, 621.14 597.43, 619.44 938.74 M619.44 32 C620.42 306.14, 620.35 580.26, 619.44 938.74 M619.44 938.74 C621.39 959.61, 607.42 972.57, 587.44 970.74 M619.44 938.74 C620.52 959.13, 609.55 971.8, 587.44 970.74 M587.44 970.74 C441.83 968.46, 295.56 968.95, 32 970.74 M587.44 970.74 C366.33 970.34, 144.42 970.05, 32 970.74 M32 970.74 C11.58 970.68, -1.08 960.11, 0 938.74 M32 970.74 C11.29 971.73, 1.78 960.04, 0 938.74 M0 938.74 C1.77 601.48, 2.12 263.99, 0 32 M0 938.74 C3.36 645.19, 3.89 351.6, 0 32 M0 32 C-0.67 12.19, 12.57 0.28, 32 0 M0 32 C-0.4 9.05, 8.77 1.37, 32 0" stroke="#1e1e1e" stroke-width="1" fill="none"></path></g><g transform="translate(196.64848069350455 189.31295088458938) rotate(0 104.78333282470703 17.5)"><text x="0" y="0" font-family="Virgil, Segoe UI Emoji" font-size="28px" fill="#1e1e1e" text-anchor="start" style="white-space: pre;" direction="ltr" dominant-baseline="text-before-edge">delivery cluster</text></g><g stroke-linecap="round" transform="translate(166.49130259018716 270.0037787826546) rotate(0 140.59765467087118 44.420708287318746)"><path d="M22.21 0 C91.99 -1.68, 160.11 -0.16, 258.98 0 M22.21 0 C94.64 -0.82, 165.81 -1.74, 258.98 0 M258.98 0 C273.96 -0.02, 281.67 5.82, 281.2 22.21 M258.98 0 C274.12 -0.6, 280.77 9.04, 281.2 22.21 M281.2 22.21 C279.63 33.83, 280.89 43.98, 281.2 66.63 M281.2 22.21 C280.5 36.96, 280.03 53.51, 281.2 66.63 M281.2 66.63 C279.72 81.33, 272.82 88.05, 258.98 88.84 M281.2 66.63 C282.87 80.92, 272.26 87.3, 258.98 88.84 M258.98 88.84 C174.88 90.82, 90.83 90.76, 22.21 88.84 M258.98 88.84 C184.19 91.24, 109.39 90.25, 22.21 88.84 M22.21 88.84 C7.22 88.46, -0.2 82.72, 0 66.63 M22.21 88.84 C7.56 90.11, 1.72 81.89, 0 66.63 M0 66.63 C0.42 52.47, 0.85 34.12, 0 22.21 M0 66.63 C0.13 55.29, -0.99 42.19, 0 22.21 M0 22.21 C-1.47 8.06, 8.58 1.77, 22.21 0 M0 22.21 C1.12 6.99, 6.59 1.34, 22.21 0" stroke="#1e1e1e" stroke-width="1" fill="none"></path></g><g transform="translate(236.58636520870823 300.9760157536291) rotate(0 70.76667022705078 17.5)"><text x="0" y="0" font-family="Virgil, Segoe UI Emoji" font-size="28px" fill="#1e1e1e" text-anchor="start" style="white-space: pre;" direction="ltr" dominant-baseline="text-before-edge">delivery-db</text></g><g stroke-linecap="round" transform="translate(60.126120360919344 469.28567192484593) rotate(0 251.44566067225367 152.00847881807232)"><path d="M32 0 C188.35 2.07, 346.57 1.83, 470.89 0 M32 0 C148.57 1.65, 264.71 1.48, 470.89 0 M470.89 0 C493.37 1.7, 504.01 9.47, 502.89 32 M470.89 0 C490.72 0.75, 502.73 8.48, 502.89 32 M502.89 32 C504.64 97.22, 501.99 160.21, 502.89 272.02 M502.89 32 C503.29 99.46, 502.63 166.05, 502.89 272.02 M502.89 272.02 C501.76 294.33, 492.58 302.47, 470.89 304.02 M502.89 272.02 C501.09 291.74, 492.3 304.52, 470.89 304.02 M470.89 304.02 C313.47 304.9, 157.67 306.17, 32 304.02 M470.89 304.02 C337.36 305.3, 204.77 305.03, 32 304.02 M32 304.02 C9.4 305.3, 0.06 294.67, 0 272.02 M32 304.02 C10.88 304.51, -0.97 291.89, 0 272.02 M0 272.02 C2.6 199.95, 2.82 124.41, 0 32 M0 272.02 C1.52 205.2, 1.46 136.38, 0 32 M0 32 C-0.83 11.98, 10.48 -1.16, 32 0 M0 32 C-0.67 9.09, 11.97 0.95, 32 0" stroke="#1e1e1e" stroke-width="1" fill="none"></path></g><g transform="translate(180.75483277418857 485.5868492779904) rotate(0 98.94166564941406 17.5)"><text x="0" y="0" font-family="Virgil, Segoe UI Emoji" font-size="28px" fill="#1e1e1e" text-anchor="start" style="white-space: pre;" direction="ltr" dominant-baseline="text-before-edge">backup cronjob</text></g><g stroke-linecap="round"><g transform="translate(304.8844431422664 467.2480247557028) rotate(0 0 -51.348708662405095)"><path d="M1.19 0.48 C0.86 -16.69, -0.69 -86.65, -0.88 -103.69 M0.36 -0.31 C0.3 -17.31, 1.54 -85.45, 1.38 -102.67" stroke="#1e1e1e" stroke-width="1" fill="none"></path></g><g transform="translate(304.8844431422664 467.2480247557028) rotate(0 0 -51.348708662405095)"><path d="M11.47 -74.42 C8.46 -86.87, 2.05 -96.36, 1.38 -102.67 M11.47 -74.42 C8.27 -84.28, 2.88 -95.37, 1.38 -102.67" stroke="#1e1e1e" stroke-width="1" fill="none"></path></g><g transform="translate(304.8844431422664 467.2480247557028) rotate(0 0 -51.348708662405095)"><path d="M-9.05 -74.54 C-4 -87.15, -2.36 -96.59, 1.38 -102.67 M-9.05 -74.54 C-4.52 -84.44, -2.18 -95.48, 1.38 -102.67" stroke="#1e1e1e" stroke-width="1" fill="none"></path></g></g><mask></mask><g transform="translate(324.61272291568844 386.55719685763756) rotate(0 127.82499694824213 35)"><text x="0" y="0" font-family="Virgil, Segoe UI Emoji" font-size="28px" fill="#1e1e1e" text-anchor="start" style="white-space: pre;" direction="ltr" dominant-baseline="text-before-edge">access via cluster</text><text x="0" y="35" font-family="Virgil, Segoe UI Emoji" font-size="28px" fill="#1e1e1e" text-anchor="start" style="white-space: pre;" direction="ltr" dominant-baseline="text-before-edge">local HTTP</text></g><g stroke-linecap="round"><g transform="translate(724.8066269353859 18.965647544229455) rotate(0 0 575.4315605660004)"><path d="M0.27 0.54 C0.47 192.55, 0.93 959.32, 0.94 1151.02" stroke="#1e1e1e" stroke-width="1.5" fill="none" stroke-dasharray="8 9"></path></g></g><mask></mask><g stroke-linecap="round" transform="translate(1164.938415470287 383.2969613870088) rotate(0 181.75812748756096 114.92330033966863)"><path d="M32 0 C94.07 0.22, 153.82 -1.14, 331.52 0 M32 0 C103.53 0.4, 174.39 1.23, 331.52 0 M331.52 0 C354.8 -1.49, 364 11.13, 363.52 32 M331.52 0 C350.58 0.93, 362.89 12.43, 363.52 32 M363.52 32 C361.03 68.11, 362.2 104.88, 363.52 197.85 M363.52 32 C365.49 68.24, 364.07 104.35, 363.52 197.85 M363.52 197.85 C363.26 220.79, 354.28 231.82, 331.52 229.85 M363.52 197.85 C364.36 220.39, 352.28 230.96, 331.52 229.85 M331.52 229.85 C235.28 226.53, 135.28 226.59, 32 229.85 M331.52 229.85 C257.62 230.14, 183.49 231.08, 32 229.85 M32 229.85 C11.72 228.76, 0.09 217.2, 0 197.85 M32 229.85 C9.04 228.25, -0.63 219.08, 0 197.85 M0 197.85 C2.2 143.6, 0.8 86.02, 0 32 M0 197.85 C1.37 159.71, 0.87 120.63, 0 32 M0 32 C-1.06 11.17, 9.34 -0.59, 32 0 M0 32 C1.91 12.22, 12.87 1.84, 32 0" stroke="#1e1e1e" stroke-width="1" fill="none"></path></g><g transform="translate(1263.5605384568112 406.9336685490684) rotate(0 89.14167022705078 17.5)"><text x="0" y="0" font-family="Virgil, Segoe UI Emoji" font-size="28px" fill="#1e1e1e" text-anchor="start" style="white-space: pre;" direction="ltr" dominant-baseline="text-before-edge">OCI Registry</text></g><g stroke-linecap="round" transform="translate(1206.506417720805 481.1040255058758) rotate(0 145.08047844298596 46.52047094125777)"><path d="M23.26 0 C95.28 -0.06, 165.46 1.73, 266.9 0 M23.26 0 C87.48 2.28, 151.89 1.09, 266.9 0 M266.9 0 C282.57 1.35, 290.48 6.06, 290.16 23.26 M266.9 0 C282.61 1.84, 292.12 6.22, 290.16 23.26 M290.16 23.26 C289.7 38.23, 289.18 51.37, 290.16 69.78 M290.16 23.26 C289.95 34.77, 289.61 43.74, 290.16 69.78 M290.16 69.78 C290.56 85.64, 282.51 94.72, 266.9 93.04 M290.16 69.78 C291.93 87.26, 283.72 94.92, 266.9 93.04 M266.9 93.04 C210.97 93.32, 156.45 94.5, 23.26 93.04 M266.9 93.04 C207.31 94.81, 147.45 94.3, 23.26 93.04 M23.26 93.04 C7.31 94.03, 0.05 85.06, 0 69.78 M23.26 93.04 C9.37 92.25, 0.61 86.93, 0 69.78 M0 69.78 C-1.36 49.99, 0.15 34.06, 0 23.26 M0 69.78 C0.13 54.4, -0.39 41.29, 0 23.26 M0 23.26 C-1.87 6.91, 7.54 -1.7, 23.26 0 M0 23.26 C-0.96 7.98, 9.74 0.34, 23.26 0" stroke="#1e1e1e" stroke-width="1" fill="none"></path></g><g transform="translate(1296.1368954008517 510.1244964471336) rotate(0 55.45000076293945 17.5)"><text x="55.45000076293945" y="0" font-family="Virgil, Segoe UI Emoji" font-size="28px" fill="#1e1e1e" text-anchor="middle" style="white-space: pre;" direction="ltr" dominant-baseline="text-before-edge">ocmRepo</text></g><g stroke-linecap="round"><g transform="translate(566.5234547392605 540.090213414103) rotate(0 317.54630488780106 0)"><path d="M1.08 -0.49 C106.7 -0.4, 528.87 -0.62, 634.6 -0.59 M0.18 -1.79 C105.53 -1.45, 527.62 0.2, 633.39 0.64" stroke="#1e1e1e" stroke-width="1" fill="none"></path></g><g transform="translate(566.5234547392605 540.090213414103) rotate(0 317.54630488780106 0)"><path d="M605.16 10.79 C614.9 5.95, 625.21 3.55, 633.39 0.64 M605.16 10.79 C612.82 7.53, 621.46 5.25, 633.39 0.64" stroke="#1e1e1e" stroke-width="1" fill="none"></path></g><g transform="translate(566.5234547392605 540.090213414103) rotate(0 317.54630488780106 0)"><path d="M605.24 -9.73 C614.77 -6.96, 625.04 -1.76, 633.39 0.64 M605.24 -9.73 C612.68 -7.3, 621.3 -3.9, 633.39 0.64" stroke="#1e1e1e" stroke-width="1" fill="none"></path></g></g><mask></mask><g transform="translate(765.5595703182468 493.329908520734) rotate(0 165.625 17.5)"><text x="0" y="0" font-family="Virgil, Segoe UI Emoji" font-size="28px" fill="#1e1e1e" text-anchor="start" style="white-space: pre;" direction="ltr" dominant-baseline="text-before-edge">upload OCM to ocmRepo</text></g><g transform="translate(1001.9266419388422 10) rotate(0 96.03333282470703 17.5)"><text x="0" y="0" font-family="Virgil, Segoe UI Emoji" font-size="28px" fill="#1e1e1e" text-anchor="start" style="white-space: pre;" direction="ltr" dominant-baseline="text-before-edge">public internet</text></g><g transform="translate(301.4699017819453 18.581883765031193) rotate(0 81.5999984741211 17.5)"><text x="0" y="0" font-family="Virgil, Segoe UI Emoji" font-size="28px" fill="#1e1e1e" text-anchor="start" style="white-space: pre;" direction="ltr" dominant-baseline="text-before-edge">sap internal</text></g><g transform="translate(110.25224072183846 543.0484994478247) rotate(0 214.64999389648438 106.16177412235481)"><text x="0" y="0" font-family="Virgil, Segoe UI Emoji" font-size="24.265548370823954px" fill="#1e1e1e" text-anchor="start" style="white-space: pre;" direction="ltr" dominant-baseline="text-before-edge">- use pg_dump for backup</text><text x="0" y="30.33193546352994" font-family="Virgil, Segoe UI Emoji" font-size="24.265548370823954px" fill="#1e1e1e" text-anchor="start" style="white-space: pre;" direction="ltr" dominant-baseline="text-before-edge">- credentials via cfg-factory</text><text x="0" y="60.66387092705988" font-family="Virgil, Segoe UI Emoji" font-size="24.265548370823954px" fill="#1e1e1e" text-anchor="start" style="white-space: pre;" direction="ltr" dominant-baseline="text-before-edge">  secret mount</text><text x="0" y="90.99580639058982" font-family="Virgil, Segoe UI Emoji" font-size="24.265548370823954px" fill="#1e1e1e" text-anchor="start" style="white-space: pre;" direction="ltr" dominant-baseline="text-before-edge">- implement as extension</text><text x="0" y="121.32774185411976" font-family="Virgil, Segoe UI Emoji" font-size="24.265548370823954px" fill="#1e1e1e" text-anchor="start" style="white-space: pre;" direction="ltr" dominant-baseline="text-before-edge">- use extension logging</text><text x="0" y="151.6596773176497" font-family="Virgil, Segoe UI Emoji" font-size="24.265548370823954px" fill="#1e1e1e" text-anchor="start" style="white-space: pre;" direction="ltr" dominant-baseline="text-before-edge">- create OCM Component-Descriptor</text><text x="0" y="181.99161278117964" font-family="Virgil, Segoe UI Emoji" font-size="24.265548370823954px" fill="#1e1e1e" text-anchor="start" style="white-space: pre;" direction="ltr" dominant-baseline="text-before-edge">  with backup as local resource</text></g><g stroke-linecap="round" transform="translate(51.568002250519044 850.3256925545984) rotate(0 147.11812561212912 28.934589801831493)"><path d="M14.47 0 C88.72 -0.66, 163.7 0.1, 279.77 0 M14.47 0 C89.32 -1.16, 165.37 -1.64, 279.77 0 M279.77 0 C287.8 1.95, 293.49 5.21, 294.24 14.47 M279.77 0 C290.12 -2.04, 293.08 6.21, 294.24 14.47 M294.24 14.47 C293.51 20.87, 293.6 29.4, 294.24 43.4 M294.24 14.47 C294.34 26.39, 293.57 36.76, 294.24 43.4 M294.24 43.4 C293.81 54.59, 288.39 59.66, 279.77 57.87 M294.24 43.4 C292.83 51.12, 289.82 58.33, 279.77 57.87 M279.77 57.87 C216.6 55.28, 155.31 56.25, 14.47 57.87 M279.77 57.87 C205.53 55.75, 133.15 56.51, 14.47 57.87 M14.47 57.87 C4.64 58.48, 1.52 52.66, 0 43.4 M14.47 57.87 C4.31 56.2, -1.03 51.01, 0 43.4 M0 43.4 C0.89 33.57, -1.5 20.6, 0 14.47 M0 43.4 C1.04 32.71, -0.28 22.54, 0 14.47 M0 14.47 C-0.92 3.93, 3.6 1.5, 14.47 0 M0 14.47 C1.26 5.86, 4.75 -0.3, 14.47 0" stroke="#1e1e1e" stroke-width="1" fill="none"></path></g><g transform="translate(85.8004746921224 864.1816933047711) rotate(0 113.59166717529297 17.5)"><text x="0" y="0" font-family="Virgil, Segoe UI Emoji" font-size="28px" fill="#1e1e1e" text-anchor="start" style="white-space: pre;" direction="ltr" dominant-baseline="text-before-edge">Log Entry (CRD)</text></g><g transform="translate(448.5016707995875 922.8659317760914) rotate(0 36.54166793823242 17.5)"><text x="0" y="0" font-family="Virgil, Segoe UI Emoji" font-size="28px" fill="#1e1e1e" text-anchor="start" style="white-space: pre;" direction="ltr" dominant-baseline="text-before-edge">yields</text></g><g stroke-linecap="round" transform="translate(52.79059055200457 922.4584023422626) rotate(0 147.11812561212912 28.93458980183152)"><path d="M14.47 0 C113.49 0.47, 209.91 -1.81, 279.77 0 M14.47 0 C81.07 -0.64, 146.5 -0.3, 279.77 0 M279.77 0 C289.79 0.57, 293.73 3.9, 294.24 14.47 M279.77 0 C289.91 0.22, 295.24 5.83, 294.24 14.47 M294.24 14.47 C296.41 25.21, 295.25 32.79, 294.24 43.4 M294.24 14.47 C294.2 21.4, 294.39 29.41, 294.24 43.4 M294.24 43.4 C295.66 52.52, 288.49 59.64, 279.77 57.87 M294.24 43.4 C296.44 50.93, 289.13 58.56, 279.77 57.87 M279.77 57.87 C191.55 60.66, 102.97 60.92, 14.47 57.87 M279.77 57.87 C200.46 57.22, 121.87 58.07, 14.47 57.87 M14.47 57.87 C6.3 57.79, 0.28 52.27, 0 43.4 M14.47 57.87 C6.28 55.77, -1.8 53.87, 0 43.4 M0 43.4 C-0.46 36.83, -1.32 30.6, 0 14.47 M0 43.4 C0.62 32.49, -0.52 21.56, 0 14.47 M0 14.47 C0.92 5.94, 3.6 -0.76, 14.47 0 M0 14.47 C0.15 5.95, 6.22 1.38, 14.47 0" stroke="#1e1e1e" stroke-width="1" fill="none"></path></g><g transform="translate(87.02306299360805 936.3144030924353) rotate(0 113.59166717529297 17.5)"><text x="0" y="0" font-family="Virgil, Segoe UI Emoji" font-size="28px" fill="#1e1e1e" text-anchor="start" style="white-space: pre;" direction="ltr" dominant-baseline="text-before-edge">Log Entry (CRD)</text></g><g stroke-linecap="round" transform="translate(52.79059055200457 993.3685238284411) rotate(0 147.11812561212912 28.93458980183152)"><path d="M14.47 0 C120.33 0.93, 223.03 1.97, 279.77 0 M14.47 0 C78.2 0.99, 142.74 0.44, 279.77 0 M279.77 0 C288.03 -1.38, 295.52 4.25, 294.24 14.47 M279.77 0 C290.98 1.66, 295.25 4.06, 294.24 14.47 M294.24 14.47 C294.51 23.04, 293.04 34.79, 294.24 43.4 M294.24 14.47 C294.22 22.45, 295.34 29.48, 294.24 43.4 M294.24 43.4 C292.54 52.8, 287.91 58.71, 279.77 57.87 M294.24 43.4 C293.57 52.29, 290.4 59.4, 279.77 57.87 M279.77 57.87 C176.03 55.88, 73.13 55.24, 14.47 57.87 M279.77 57.87 C222.73 57.92, 166.33 56.6, 14.47 57.87 M14.47 57.87 C4.08 56.11, 0.42 54.61, 0 43.4 M14.47 57.87 C6.11 58.7, -1.19 50.91, 0 43.4 M0 43.4 C-1.61 34.44, -1.58 22.4, 0 14.47 M0 43.4 C0.65 31.36, 0.34 20.64, 0 14.47 M0 14.47 C1.97 5.19, 4.26 1.87, 14.47 0 M0 14.47 C1.67 5, 6.54 1.09, 14.47 0" stroke="#1e1e1e" stroke-width="1" fill="none"></path></g><g transform="translate(87.02306299360805 1007.2245245786138) rotate(0 113.59166717529297 17.5)"><text x="0" y="0" font-family="Virgil, Segoe UI Emoji" font-size="28px" fill="#1e1e1e" text-anchor="start" style="white-space: pre;" direction="ltr" dominant-baseline="text-before-edge">Log Entry (CRD)</text></g><g transform="translate(305.0513100919155 1070.281940027992) rotate(0 14.800000190734863 22.5)"><text x="0" y="0" font-family="Virgil, Segoe UI Emoji" font-size="36px" fill="#1e1e1e" text-anchor="start" style="white-space: pre;" direction="ltr" dominant-baseline="text-before-edge">...</text></g><g stroke-linecap="round"><g transform="translate(428.1251991081566 778.6005122007625) rotate(0 0 147.52565504595762)"><path d="M-0.6 0.06 C-0.39 49.31, 0.54 245.48, 0.62 294.78 M1.29 -0.96 C1.45 48.54, 0.37 247.03, 0 296.17" stroke="#1e1e1e" stroke-width="1" fill="none"></path></g></g><mask></mask><g stroke-linecap="round"><g transform="translate(428.9402579758138 877.2226351872866) rotate(0 -39.93788451520402 0)"><path d="M-0.82 0.17 C-14.35 0.15, -66.98 -0.34, -80.22 -0.48 M0.95 -0.79 C-12.85 -0.61, -67.65 0.62, -81.35 0.81" stroke="#1e1e1e" stroke-width="1" fill="none"></path></g><g transform="translate(428.9402579758138 877.2226351872866) rotate(0 -39.93788451520402 0)"><path d="M-53.35 -9.98 C-63.75 -6.63, -75.48 -2.61, -81.35 0.81 M-53.35 -9.98 C-60.57 -7.18, -67.69 -4.53, -81.35 0.81" stroke="#1e1e1e" stroke-width="1" fill="none"></path></g><g transform="translate(428.9402579758138 877.2226351872866) rotate(0 -39.93788451520402 0)"><path d="M-52.97 10.54 C-63.45 6.08, -75.33 2.29, -81.35 0.81 M-52.97 10.54 C-60.31 8.25, -67.53 5.81, -81.35 0.81" stroke="#1e1e1e" stroke-width="1" fill="none"></path></g></g><mask></mask><g stroke-linecap="round"><g transform="translate(426.7556052345634 953.0104390214277) rotate(0 -39.93788451520402 0)"><path d="M0.87 0.56 C-12.32 0.87, -65.74 0.83, -79.22 0.8 M-0.13 -0.19 C-13.41 -0.13, -66.38 -0.64, -79.83 -0.9" stroke="#1e1e1e" stroke-width="1" fill="none"></path></g><g transform="translate(426.7556052345634 953.0104390214277) rotate(0 -39.93788451520402 0)"><path d="M-51.5 -10.78 C-58.88 -6.61, -66.72 -5.05, -79.83 -0.9 M-51.5 -10.78 C-60.73 -7.16, -70.37 -4.38, -79.83 -0.9" stroke="#1e1e1e" stroke-width="1" fill="none"></path></g><g transform="translate(426.7556052345634 953.0104390214277) rotate(0 -39.93788451520402 0)"><path d="M-51.78 9.74 C-58.9 7.94, -66.66 3.54, -79.83 -0.9 M-51.78 9.74 C-60.76 6.52, -70.31 2.46, -79.83 -0.9" stroke="#1e1e1e" stroke-width="1" fill="none"></path></g></g><mask></mask><g stroke-linecap="round"><g transform="translate(427.5706641022206 1023.920560507606) rotate(0 -39.93788451520402 0)"><path d="M-0.28 -0.38 C-13.89 -0.73, -67.71 -1.29, -80.88 -1.16 M1.78 -1.62 C-11.54 -1.95, -65.11 -0.22, -78.7 -0.24" stroke="#1e1e1e" stroke-width="1" fill="none"></path></g><g transform="translate(427.5706641022206 1023.920560507606) rotate(0 -39.93788451520402 0)"><path d="M-50.68 -10.97 C-61.49 -8.78, -73.07 -2.21, -78.7 -0.24 M-50.68 -10.97 C-59.3 -8.07, -69.5 -2.78, -78.7 -0.24" stroke="#1e1e1e" stroke-width="1" fill="none"></path></g><g transform="translate(427.5706641022206 1023.920560507606) rotate(0 -39.93788451520402 0)"><path d="M-50.34 9.55 C-61.43 4.22, -73.14 3.27, -78.7 -0.24 M-50.34 9.55 C-59.07 5.61, -69.37 4.05, -78.7 -0.24" stroke="#1e1e1e" stroke-width="1" fill="none"></path></g></g><mask></mask></svg>