<svg version="1.1" xmlns="http://www.w3.org/2000/svg" viewBox="0 0 2625.721496155104 1294.5319933478104" width="7877.164488465312" height="3883.595980043431">
  <!-- svg-source:excalidraw -->
  
  <defs>
    <style class="style-fonts">
      @font-face {
        font-family: "Virgil";
        src: url("https://excalidraw.com/Virgil.woff2");
      }
      @font-face {
        font-family: "Cascadia";
        src: url("https://excalidraw.com/Cascadia.woff2");
      }
      @font-face {
        font-family: "Assistant";
        src: url("https://excalidraw.com/Assistant-Regular.woff2");
      }
    </style>
    
  </defs>
  <rect x="0" y="0" width="2625.721496155104" height="1294.5319933478104" fill="#ffffff"></rect><g stroke-linecap="round"><g transform="translate(20.965873229483805 329.8030431830614) rotate(0 1190.4452334202936 7.572779617397771)"><path d="M-0.94 0.61 C395.82 3.41, 1983.42 13.91, 2380.38 16.23" stroke="#1e1e1e" stroke-width="2.5" fill="none" stroke-dasharray="8 10"></path></g></g><mask></mask><g transform="translate(30.222284735335506 297.7153082749867) rotate(0 99.609375 12)"><text x="0" y="0" font-family="Cascadia, Segoe UI Emoji" font-size="20px" fill="#1e1e1e" text-anchor="start" style="white-space: pre;" direction="ltr" dominant-baseline="text-before-edge">delivery database</text></g><g stroke-linecap="round" transform="translate(438.5761962606939 159.1401252886585) rotate(0 92.78707811657864 58)"><path d="M55.8 4.51 C66.22 0.8, 81.13 -0.24, 93.97 0.04 C106.81 0.33, 121.3 2.87, 132.83 6.24 C144.37 9.61, 155.15 14.4, 163.21 20.26 C171.27 26.12, 177.73 33.86, 181.2 41.41 C184.68 48.96, 185.65 57.81, 184.05 65.56 C182.44 73.32, 178.04 81.23, 171.59 87.95 C165.14 94.66, 155.44 101.27, 145.36 105.84 C135.27 110.41, 123.5 113.99, 111.08 115.37 C98.67 116.74, 83.21 115.76, 70.88 114.07 C58.55 112.39, 46.89 109.93, 37.1 105.26 C27.31 100.58, 18.27 93.06, 12.14 86.04 C6 79.01, 1.32 71.07, 0.29 63.1 C-0.73 55.13, 1.98 45.8, 5.99 38.22 C10 30.65, 15.61 23.2, 24.36 17.63 C33.1 12.06, 52.35 6.87, 58.48 4.81 C64.62 2.76, 60.42 4.46, 61.19 5.3 M47.96 7.01 C57.57 2.81, 71.38 0.45, 84 -0.14 C96.63 -0.74, 111.77 0.71, 123.74 3.45 C135.7 6.19, 146.4 10.78, 155.78 16.3 C165.16 21.82, 175.2 29.14, 180 36.55 C184.79 43.96, 185.11 53.03, 184.56 60.76 C184.02 68.48, 181.97 75.95, 176.71 82.9 C171.46 89.86, 162.44 97.2, 153.04 102.49 C143.65 107.78, 132.52 112.55, 120.34 114.67 C108.17 116.79, 92.54 116.28, 79.98 115.2 C67.42 114.13, 55.82 112.48, 44.98 108.23 C34.15 103.99, 22.11 96.16, 14.98 89.72 C7.86 83.29, 4.09 76.95, 2.23 69.63 C0.37 62.32, 0.96 53.64, 3.83 45.84 C6.69 38.04, 12 29.41, 19.41 22.86 C26.81 16.31, 43.03 9.24, 48.25 6.54 C53.48 3.85, 49.95 5.55, 50.76 6.71" stroke="#1e1e1e" stroke-width="2" fill="none"></path></g><g transform="translate(472.65915223455386 181.12793197983876) rotate(0 58.59375 36)"><text x="58.59375" y="0" font-family="Cascadia, Segoe UI Emoji" font-size="20px" fill="#1e1e1e" text-anchor="middle" style="white-space: pre;" direction="ltr" dominant-baseline="text-before-edge">compliance</text><text x="58.59375" y="24" font-family="Cascadia, Segoe UI Emoji" font-size="20px" fill="#1e1e1e" text-anchor="middle" style="white-space: pre;" direction="ltr" dominant-baseline="text-before-edge">snapshots</text><text x="58.59375" y="48" font-family="Cascadia, Segoe UI Emoji" font-size="20px" fill="#1e1e1e" text-anchor="middle" style="white-space: pre;" direction="ltr" dominant-baseline="text-before-edge">(CS)</text></g><g stroke-linecap="round" transform="translate(980.8949905112036 154.81722717823266) rotate(0 94.84043449889032 51.32906171612399)"><path d="M78.77 0.11 C91.3 -1.83, 107.33 -0.88, 120.51 1.36 C133.69 3.6, 147.5 8.69, 157.86 13.54 C168.21 18.39, 177.43 23.69, 182.64 30.46 C187.85 37.22, 189.72 46.46, 189.14 54.12 C188.55 61.78, 185.61 69.95, 179.12 76.42 C172.64 82.89, 161.49 88.55, 150.21 92.95 C138.93 97.34, 125.1 101.58, 111.46 102.78 C97.82 103.97, 81.71 102.31, 68.36 100.09 C55.01 97.88, 41.37 94.36, 31.35 89.48 C21.33 84.59, 13.33 77.42, 8.25 70.78 C3.16 64.15, 0.21 57.17, 0.83 49.67 C1.45 42.18, 5.54 32.6, 11.96 25.8 C18.37 19, 26.42 13.17, 39.33 8.88 C52.23 4.59, 79.24 1.38, 89.36 0.06 C99.48 -1.27, 99.9 0.05, 100.05 0.92 M68.89 1.1 C81.13 -1.85, 98.11 -0.52, 111.51 0.85 C124.91 2.21, 138.19 4.86, 149.28 9.29 C160.36 13.72, 171.13 21.08, 178.01 27.45 C184.89 33.81, 189.84 40.14, 190.57 47.47 C191.29 54.79, 187.58 64.61, 182.34 71.38 C177.11 78.15, 169.49 83.1, 159.17 88.08 C148.85 93.05, 133.53 98.72, 120.42 101.25 C107.3 103.78, 93.59 104.52, 80.48 103.24 C67.36 101.97, 53.09 98.11, 41.72 93.59 C30.34 89.08, 19.23 82.44, 12.22 76.15 C5.22 69.86, 0.77 63.19, -0.32 55.85 C-1.41 48.52, 0.19 39.25, 5.69 32.15 C11.18 25.05, 22.35 18.05, 32.66 13.24 C42.96 8.42, 61.38 4.78, 67.52 3.26 C73.66 1.73, 69.19 3.5, 69.5 4.06" stroke="#1e1e1e" stroke-width="2" fill="none"></path></g><g transform="translate(1028.7981106452498 182.3511612829426) rotate(0 46.875 24)"><text x="46.875" y="0" font-family="Cascadia, Segoe UI Emoji" font-size="20px" fill="#1e1e1e" text-anchor="middle" style="white-space: pre;" direction="ltr" dominant-baseline="text-before-edge">license</text><text x="46.875" y="24" font-family="Cascadia, Segoe UI Emoji" font-size="20px" fill="#1e1e1e" text-anchor="middle" style="white-space: pre;" direction="ltr" dominant-baseline="text-before-edge">findings</text></g><g stroke-linecap="round" transform="translate(1257.3927587984113 156.05617895164107) rotate(0 94.84043449889032 51.32906171612399)"><path d="M119.58 2.16 C132.25 3.33, 146.23 8.61, 156.69 13.42 C167.14 18.23, 176.69 24.32, 182.29 31 C187.9 37.69, 191.09 46.03, 190.31 53.54 C189.54 61.04, 184.27 69.34, 177.64 76.02 C171.01 82.71, 161.43 89.39, 150.52 93.65 C139.6 97.91, 125.62 100.43, 112.14 101.6 C98.65 102.77, 82.88 102.52, 69.62 100.67 C56.35 98.83, 42.92 95.54, 32.54 90.53 C22.17 85.53, 12.79 77.6, 7.37 70.64 C1.96 63.68, -0.57 56.01, 0.05 48.77 C0.66 41.52, 4.53 33.52, 11.07 27.17 C17.62 20.83, 28.08 15.08, 39.31 10.68 C50.54 6.28, 63.49 1.98, 78.45 0.76 C93.42 -0.45, 119.28 2.29, 129.1 3.38 C138.92 4.46, 137.92 6.6, 137.37 7.28 M135.29 5 C147.41 7.24, 159.63 12.36, 168.24 18.27 C176.84 24.17, 183.54 32.93, 186.92 40.4 C190.3 47.87, 191.19 56.2, 188.52 63.06 C185.85 69.92, 179.48 75.59, 170.89 81.55 C162.29 87.52, 149.53 95.37, 136.97 98.85 C124.4 102.34, 109.14 102.59, 95.49 102.46 C81.85 102.34, 67.5 101.35, 55.11 98.12 C42.72 94.88, 30.1 88.75, 21.17 83.04 C12.23 77.34, 4.43 70.86, 1.5 63.9 C-1.44 56.93, 0.46 48.42, 3.55 41.27 C6.64 34.13, 11.57 27.16, 20.03 21.02 C28.5 14.87, 42.24 8.01, 54.33 4.41 C66.42 0.82, 78.9 -0.71, 92.59 -0.54 C106.28 -0.37, 129.71 4.42, 136.45 5.43 C143.18 6.44, 133.89 4.91, 132.99 5.54" stroke="#1e1e1e" stroke-width="2" fill="none"></path></g><g transform="translate(1305.295878932458 183.59011305635102) rotate(0 46.875 24)"><text x="46.875" y="0" font-family="Cascadia, Segoe UI Emoji" font-size="20px" fill="#1e1e1e" text-anchor="middle" style="white-space: pre;" direction="ltr" dominant-baseline="text-before-edge">cve</text><text x="46.875" y="24" font-family="Cascadia, Segoe UI Emoji" font-size="20px" fill="#1e1e1e" text-anchor="middle" style="white-space: pre;" direction="ltr" dominant-baseline="text-before-edge">findings</text></g><g transform="translate(2414.3616140366844 319.9195926709226) rotate(0 93.75 24)"><text x="0" y="0" font-family="Cascadia, Segoe UI Emoji" font-size="20px" fill="#1e1e1e" text-anchor="start" style="white-space: pre;" direction="ltr" dominant-baseline="text-before-edge">access via</text><text x="0" y="24" font-family="Cascadia, Segoe UI Emoji" font-size="20px" fill="#1e1e1e" text-anchor="start" style="white-space: pre;" direction="ltr" dominant-baseline="text-before-edge">delivery service</text></g><g transform="translate(14.667404417715261 1082.0973492962962) rotate(0 82.03125 12)"><text x="0" y="0" font-family="Cascadia, Segoe UI Emoji" font-size="20px" fill="#1e1e1e" text-anchor="start" style="white-space: pre;" direction="ltr" dominant-baseline="text-before-edge">ocm repository</text></g><g stroke-linecap="round" transform="translate(302.5361564824939 1166.1695679609102) rotate(0 143.51919870912616 59.18121269345011)"><path d="M83.6 6.07 C97.78 2.59, 117.72 1.11, 134.69 0.69 C151.66 0.26, 168.95 1.4, 185.44 3.52 C201.93 5.65, 219.9 9.01, 233.62 13.41 C247.33 17.82, 259.19 23.9, 267.72 29.97 C276.25 36.03, 282.09 42.98, 284.8 49.82 C287.52 56.66, 287.5 64.08, 284.01 71.01 C280.52 77.93, 273.33 85.36, 263.85 91.38 C254.37 97.39, 241.19 102.81, 227.13 107.07 C213.07 111.33, 196.07 114.97, 179.5 116.94 C162.93 118.92, 145.01 119.71, 127.71 118.91 C110.42 118.12, 91.24 115.78, 75.74 112.18 C60.23 108.59, 45.83 102.99, 34.69 97.35 C23.55 91.71, 14.66 84.86, 8.87 78.33 C3.09 71.81, -0.47 65.11, -0.04 58.19 C0.39 51.28, 4.87 43.42, 11.45 36.85 C18.03 30.29, 25.17 24.57, 39.43 18.78 C53.69 12.99, 84.57 4.69, 97.02 2.11 C109.47 -0.46, 113.14 2.28, 114.1 3.31 M198.79 3.19 C215.01 4.69, 230.35 11.04, 242.89 16.29 C255.43 21.53, 266.93 28.37, 274.03 34.68 C281.13 40.99, 284.39 47.1, 285.5 54.12 C286.6 61.14, 285.69 69.96, 280.64 76.79 C275.59 83.61, 265.58 89.31, 255.18 95.08 C244.78 100.85, 232.78 107.44, 218.24 111.42 C203.7 115.41, 185.18 117.84, 167.94 119.02 C150.71 120.19, 131.81 120.42, 114.82 118.5 C97.82 116.58, 80.57 111.58, 65.98 107.51 C51.39 103.44, 37.36 99.69, 27.27 94.08 C17.18 88.47, 9.72 80.82, 5.44 73.86 C1.15 66.9, -0.32 59.51, 1.56 52.32 C3.44 45.13, 8.81 36.74, 16.72 30.71 C24.62 24.68, 36.13 20.5, 48.99 16.15 C61.85 11.8, 77.88 7.3, 93.87 4.61 C109.87 1.92, 127.62 0.21, 144.94 0.03 C162.25 -0.16, 189.15 2.34, 197.74 3.48 C206.34 4.63, 197.23 5.97, 196.5 6.89" stroke="#1e1e1e" stroke-width="2" fill="none"></path></g><g transform="translate(387.4782065539375 1213.5033438399782) rotate(0 58.59375 12)"><text x="58.59375" y="0" font-family="Cascadia, Segoe UI Emoji" font-size="20px" fill="#1e1e1e" text-anchor="middle" style="white-space: pre;" direction="ltr" dominant-baseline="text-before-edge">components</text></g><g stroke-linecap="round" transform="translate(445.8829932640583 1115.965182205291) rotate(0 94.84043449889032 51.32906171612399)"><path d="M117.58 1.35 C130.35 2.37, 144.64 7.59, 155.1 12.37 C165.56 17.15, 174.54 23.54, 180.35 30.04 C186.16 36.53, 190.04 43.78, 189.96 51.32 C189.87 58.85, 186.08 68.5, 179.83 75.25 C173.58 82, 163.52 87.54, 152.44 91.82 C141.37 96.09, 126.93 99.37, 113.39 100.92 C99.86 102.48, 84.31 102.94, 71.23 101.14 C58.16 99.33, 45.29 94.86, 34.96 90.11 C24.63 85.35, 15.08 79.26, 9.24 72.63 C3.41 65.99, -0.18 57.59, -0.06 50.29 C0.06 42.99, 3.63 35.33, 9.96 28.84 C16.3 22.35, 27.02 15.92, 37.94 11.36 C48.87 6.79, 60.16 2.86, 75.52 1.44 C90.87 0.01, 119.03 1.74, 130.05 2.82 C141.07 3.9, 142.3 6.91, 141.64 7.9 M126.01 2.12 C138.99 3.77, 153.9 8.61, 163.67 13.99 C173.44 19.37, 180.2 27.26, 184.63 34.42 C189.07 41.58, 192.14 49.35, 190.29 56.96 C188.45 64.58, 180.92 73.85, 173.55 80.13 C166.19 86.41, 157.54 90.72, 146.11 94.65 C134.68 98.58, 119.1 102.65, 104.98 103.71 C90.86 104.78, 74.33 103.74, 61.4 101.05 C48.47 98.36, 36.76 93.3, 27.39 87.59 C18.01 81.87, 9.58 73.78, 5.15 66.76 C0.72 59.73, -0.77 52.79, 0.81 45.42 C2.39 38.05, 7.44 28.83, 14.63 22.52 C21.81 16.22, 32.41 11.3, 43.91 7.59 C55.42 3.89, 69.68 1.03, 83.68 0.32 C97.68 -0.4, 120.86 2.88, 127.92 3.31 C134.99 3.74, 126.93 2.38, 126.08 2.89" stroke="none" stroke-width="0" fill="#ffffff"></path><path d="M77.92 0.63 C90.24 -1.53, 105.91 -0.33, 119.22 1.7 C132.53 3.74, 147.3 7.86, 157.79 12.84 C168.28 17.83, 176.85 25, 182.14 31.64 C187.43 38.27, 190.24 45.22, 189.52 52.64 C188.79 60.07, 184.26 69.41, 177.79 76.19 C171.32 82.96, 161.61 88.89, 150.71 93.3 C139.82 97.71, 125.99 101.31, 112.41 102.64 C98.84 103.97, 82.45 103.21, 69.25 101.27 C56.05 99.33, 43.55 95.8, 33.21 91 C22.88 86.2, 12.67 79.52, 7.24 72.49 C1.82 65.46, 0.01 56.43, 0.66 48.84 C1.32 41.25, 4.7 33.31, 11.17 26.95 C17.64 20.59, 25.78 15.3, 39.47 10.68 C53.17 6.07, 82.07 0.64, 93.36 -0.74 C104.66 -2.11, 107.48 1.6, 107.24 2.42 M53.31 4.5 C64.55 0.67, 82.18 -0.68, 95.93 -0.38 C109.69 -0.09, 123.79 2.91, 135.85 6.27 C147.91 9.64, 159.83 14.2, 168.29 19.78 C176.74 25.37, 183.54 32.54, 186.57 39.79 C189.6 47.04, 189.73 55.95, 186.48 63.26 C183.23 70.58, 175.87 78.17, 167.07 83.69 C158.28 89.22, 145.81 93.06, 133.71 96.41 C121.61 99.76, 107.93 103.82, 94.46 103.78 C80.99 103.74, 65.05 99.54, 52.89 96.17 C40.72 92.79, 29.93 88.96, 21.48 83.54 C13.03 78.12, 5.23 71.26, 2.18 63.64 C-0.87 56.03, 0.16 45.5, 3.18 37.87 C6.21 30.23, 11.65 23.32, 20.32 17.82 C28.99 12.31, 49.49 6.91, 55.18 4.84 C60.87 2.77, 53.77 4.49, 54.48 5.38" stroke="#1e1e1e" stroke-width="2" fill="none"></path></g><g transform="translate(487.9267383981046 1155.4991163100012) rotate(0 52.734375 12)"><text x="52.734375" y="0" font-family="Cascadia, Segoe UI Emoji" font-size="20px" fill="#1e1e1e" text-anchor="middle" style="white-space: pre;" direction="ltr" dominant-baseline="text-before-edge">artefacts</text></g><g stroke-linecap="round" transform="translate(386.30873113780353 520.3046824447657) rotate(0 133.04687148565995 165.11895229279162)"><path d="M32 0 C77.18 0.69, 121.83 1.42, 234.09 0 M32 0 C95.99 1.16, 159.23 1.37, 234.09 0 M234.09 0 C254.62 1.98, 266.8 10.99, 266.09 32 M234.09 0 C255.08 0.73, 266.93 8.45, 266.09 32 M266.09 32 C267.21 109.27, 267.45 189.59, 266.09 298.24 M266.09 32 C263.65 93.44, 264.67 152.88, 266.09 298.24 M266.09 298.24 C265.75 319.99, 254.49 330.52, 234.09 330.24 M266.09 298.24 C265.59 318.61, 255.48 331.44, 234.09 330.24 M234.09 330.24 C175.99 330.4, 120.02 328.17, 32 330.24 M234.09 330.24 C184.38 331.35, 136.5 331.92, 32 330.24 M32 330.24 C8.88 330.33, -0.13 321.17, 0 298.24 M32 330.24 C8.94 330.18, -2.02 318.52, 0 298.24 M0 298.24 C-0.22 218.44, 0.72 136.27, 0 32 M0 298.24 C-1.14 232.98, -1.03 168.01, 0 32 M0 32 C0.72 11.4, 8.88 0.44, 32 0 M0 32 C0.56 12.93, 10.42 0.38, 32 0" stroke="#1e1e1e" stroke-width="2" fill="none"></path></g><g transform="translate(391.30873113780353 525.3046824447657) rotate(0 121.875 76.79999999999995)"><text x="0" y="0" font-family="Cascadia, Segoe UI Emoji" font-size="16px" fill="#1e1e1e" text-anchor="start" style="white-space: pre;" direction="ltr" dominant-baseline="text-before-edge"></text><text x="0" y="19.2" font-family="Cascadia, Segoe UI Emoji" font-size="16px" fill="#1e1e1e" text-anchor="start" style="white-space: pre;" direction="ltr" dominant-baseline="text-before-edge"></text><text x="0" y="38.4" font-family="Cascadia, Segoe UI Emoji" font-size="16px" fill="#1e1e1e" text-anchor="start" style="white-space: pre;" direction="ltr" dominant-baseline="text-before-edge"></text><text x="0" y="57.599999999999994" font-family="Cascadia, Segoe UI Emoji" font-size="16px" fill="#1e1e1e" text-anchor="start" style="white-space: pre;" direction="ltr" dominant-baseline="text-before-edge">- runs for each context a </text><text x="0" y="76.8" font-family="Cascadia, Segoe UI Emoji" font-size="16px" fill="#1e1e1e" text-anchor="start" style="white-space: pre;" direction="ltr" dominant-baseline="text-before-edge">separate thread (1)</text><text x="0" y="96" font-family="Cascadia, Segoe UI Emoji" font-size="16px" fill="#1e1e1e" text-anchor="start" style="white-space: pre;" direction="ltr" dominant-baseline="text-before-edge">- create missing CS and </text><text x="0" y="115.19999999999999" font-family="Cascadia, Segoe UI Emoji" font-size="16px" fill="#1e1e1e" text-anchor="start" style="white-space: pre;" direction="ltr" dominant-baseline="text-before-edge">evaluate which CSs are </text><text x="0" y="134.4" font-family="Cascadia, Segoe UI Emoji" font-size="16px" fill="#1e1e1e" text-anchor="start" style="white-space: pre;" direction="ltr" dominant-baseline="text-before-edge">active/inactive (5)</text></g><g mask="url(#mask-dw28qECAKlG8DkcdThGyC)" stroke-linecap="round"><g transform="translate(538.8326149782661 1114.353605360809) rotate(0 -8.140487026236542 -131.04551568075533)"><path d="M0.42 0.17 C-2.29 -43.13, -13.42 -217.14, -16.37 -260.95 M-0.81 -0.78 C-3.69 -44.3, -15.02 -219, -17.36 -262.47" stroke="#1e1e1e" stroke-width="2" fill="none"></path></g><g transform="translate(538.8326149782661 1114.353605360809) rotate(0 -8.140487026236542 -131.04551568075533)"><path d="M-7.41 -239.53 C-9.85 -246.4, -11.16 -254.6, -17.36 -262.47 M-7.41 -239.53 C-10.4 -246.32, -11.74 -251.39, -17.36 -262.47" stroke="#1e1e1e" stroke-width="2" fill="none"></path></g><g transform="translate(538.8326149782661 1114.353605360809) rotate(0 -8.140487026236542 -131.04551568075533)"><path d="M-24.48 -238.51 C-21.87 -245.74, -18.16 -254.24, -17.36 -262.47 M-24.48 -238.51 C-23.15 -245.47, -20.15 -250.8, -17.36 -262.47" stroke="#1e1e1e" stroke-width="2" fill="none"></path></g></g><mask id="mask-dw28qECAKlG8DkcdThGyC"><rect x="0" y="0" fill="#fff" width="655.1135890307391" height="1476.4446367223197"></rect><rect x="469.75462795202975" y="954.5080896800539" fill="#000" width="121.875" height="57.599999999999994" opacity="1"></rect></mask><g transform="translate(469.75462795202975 954.5080896800539) rotate(0 60.61017463279404 28.697199609973495)"><text x="60.9375" y="0" font-family="Cascadia, Segoe UI Emoji" font-size="16px" fill="#1e1e1e" text-anchor="middle" style="white-space: pre;" direction="ltr" dominant-baseline="text-before-edge">retrieve</text><text x="60.9375" y="19.2" font-family="Cascadia, Segoe UI Emoji" font-size="16px" fill="#1e1e1e" text-anchor="middle" style="white-space: pre;" direction="ltr" dominant-baseline="text-before-edge">configured</text><text x="60.9375" y="38.4" font-family="Cascadia, Segoe UI Emoji" font-size="16px" fill="#1e1e1e" text-anchor="middle" style="white-space: pre;" direction="ltr" dominant-baseline="text-before-edge">artefacts (2)</text></g><g stroke-linecap="round"><g transform="translate(511.38767762175576 276.4551879610375) rotate(0 -32.65515716421237 121.05831957542512)"><path d="M-0.98 1.19 C-11.65 41.67, -53.81 201.83, -64.5 242.11 M0.7 0.76 C-10.01 41.51, -53.93 203.62, -65.03 243.65" stroke="#1e1e1e" stroke-width="2" fill="none"></path></g><g transform="translate(511.38767762175576 276.4551879610375) rotate(0 -32.65515716421237 121.05831957542512)"><path d="M-67.08 218.73 C-64.73 226.59, -66.17 231.97, -65.03 243.65 M-67.08 218.73 C-66.4 227.26, -65.96 237.41, -65.03 243.65" stroke="#1e1e1e" stroke-width="2" fill="none"></path></g><g transform="translate(511.38767762175576 276.4551879610375) rotate(0 -32.65515716421237 121.05831957542512)"><path d="M-50.58 223.24 C-52.5 229.79, -58.25 233.99, -65.03 243.65 M-50.58 223.24 C-55.89 230.07, -61.46 238.59, -65.03 243.65" stroke="#1e1e1e" stroke-width="2" fill="none"></path></g></g><mask></mask><g transform="translate(409.7849297141902 523.6159654624922) rotate(0 111.328125 24)"><text x="111.328125" y="0" font-family="Cascadia, Segoe UI Emoji" font-size="20px" fill="#1e1e1e" text-anchor="middle" style="white-space: pre;" direction="ltr" dominant-baseline="text-before-edge">artefact enumerator</text><text x="111.328125" y="24" font-family="Cascadia, Segoe UI Emoji" font-size="20px" fill="#1e1e1e" text-anchor="middle" style="white-space: pre;" direction="ltr" dominant-baseline="text-before-edge">(k8s cronjob)</text></g><g stroke-linecap="round"><g transform="translate(580.2573184499365 518.284496951847) rotate(0 -12.592651926011968 -120.406825350041)"><path d="M-0.09 -0.74 C-4.22 -40.9, -20.73 -201.4, -25.1 -241.49 M-1.6 1.49 C-5.84 -38.48, -22.27 -200.02, -26 -240.31" stroke="#1e1e1e" stroke-width="2" fill="none"></path></g><g transform="translate(580.2573184499365 518.284496951847) rotate(0 -12.592651926011968 -120.406825350041)"><path d="M-15.2 -217.77 C-19.25 -223.74, -22.09 -231.82, -26 -240.31 M-15.2 -217.77 C-18.26 -224.41, -21.3 -228.77, -26 -240.31" stroke="#1e1e1e" stroke-width="2" fill="none"></path></g><g transform="translate(580.2573184499365 518.284496951847) rotate(0 -12.592651926011968 -120.406825350041)"><path d="M-32.22 -216.1 C-31.65 -222.51, -29.87 -231.04, -26 -240.31 M-32.22 -216.1 C-30.86 -223.15, -29.51 -227.94, -26 -240.31" stroke="#1e1e1e" stroke-width="2" fill="none"></path></g></g><mask></mask><g transform="translate(573.4122140091158 348.56866545677747) rotate(0 70.3125 28.80000000000001)"><text x="70.3125" y="0" font-family="Cascadia, Segoe UI Emoji" font-size="16px" fill="#1e1e1e" text-anchor="middle" style="white-space: pre;" direction="ltr" dominant-baseline="text-before-edge">delete inactive</text><text x="70.3125" y="19.2" font-family="Cascadia, Segoe UI Emoji" font-size="16px" fill="#1e1e1e" text-anchor="middle" style="white-space: pre;" direction="ltr" dominant-baseline="text-before-edge">CS after grace</text><text x="70.3125" y="38.4" font-family="Cascadia, Segoe UI Emoji" font-size="16px" fill="#1e1e1e" text-anchor="middle" style="white-space: pre;" direction="ltr" dominant-baseline="text-before-edge">period (7)</text></g><g stroke-linecap="round" transform="translate(1074.450775626624 589.1324998581064) rotate(0 98.78352322897081 82)"><path d="M123.75 20.75 C139.05 36.35, 157.01 50.51, 172.82 62.25 M123.75 20.75 C137.4 33.43, 151.95 44.9, 172.82 62.25 M172.82 62.25 C197.86 81.46, 196.45 81.11, 172.82 103.75 M172.82 62.25 C195.76 82.74, 198.11 84.82, 172.82 103.75 M172.82 103.75 C163 114.3, 152.61 121.5, 123.75 143.25 M172.82 103.75 C154.67 118.72, 134.78 135.52, 123.75 143.25 M123.75 143.25 C99.4 164.04, 97.05 162.56, 74.25 143.25 M123.75 143.25 C98.14 165.3, 98.9 162.55, 74.25 143.25 M74.25 143.25 C58.65 130.55, 42.36 119.97, 24.75 103.75 M74.25 143.25 C60.38 131.61, 45.6 120.94, 24.75 103.75 M24.75 103.75 C0.34 83.64, -1.62 84.15, 24.75 62.25 M24.75 103.75 C-1.3 83.61, -1.22 84.99, 24.75 62.25 M24.75 62.25 C42.06 48.12, 58.63 36.76, 74.25 20.75 M24.75 62.25 C40.87 49.93, 54.96 36.51, 74.25 20.75 M74.25 20.75 C99.93 1, 100.97 -0.95, 123.75 20.75 M74.25 20.75 C99.3 2.24, 100.2 -0.33, 123.75 20.75" stroke="#1e1e1e" stroke-width="2" fill="none"></path></g><g transform="translate(1132.3269122411093 635.1324998581064) rotate(0 41.015625 36)"><text x="41.015625" y="0" font-family="Cascadia, Segoe UI Emoji" font-size="20px" fill="#1e1e1e" text-anchor="middle" style="white-space: pre;" direction="ltr" dominant-baseline="text-before-edge">backlog</text><text x="41.015625" y="24" font-family="Cascadia, Segoe UI Emoji" font-size="20px" fill="#1e1e1e" text-anchor="middle" style="white-space: pre;" direction="ltr" dominant-baseline="text-before-edge">item</text><text x="41.015625" y="48" font-family="Cascadia, Segoe UI Emoji" font-size="20px" fill="#1e1e1e" text-anchor="middle" style="white-space: pre;" direction="ltr" dominant-baseline="text-before-edge">(crd)</text></g><g stroke-linecap="round"><g transform="translate(655.8624812504759 674.7937380125358) rotate(0 210.7187326838091 0.04461899703096606)"><path d="M0.27 -0.13 C70.82 -0.18, 352.12 0.14, 422.16 0.33 M-1.04 -1.24 C69.51 -1.73, 350.93 -1.74, 421.59 -1.67" stroke="#1e1e1e" stroke-width="2" fill="none"></path></g><g transform="translate(655.8624812504759 674.7937380125358) rotate(0 210.7187326838091 0.04461899703096606)"><path d="M398.09 6.88 C402.68 6.26, 408.13 1.75, 421.59 -1.67 M398.09 6.88 C407.39 2.77, 416.82 0.92, 421.59 -1.67" stroke="#1e1e1e" stroke-width="2" fill="none"></path></g><g transform="translate(655.8624812504759 674.7937380125358) rotate(0 210.7187326838091 0.04461899703096606)"><path d="M398.1 -10.22 C402.78 -7.31, 408.22 -8.31, 421.59 -1.67 M398.1 -10.22 C407.46 -7.85, 416.88 -3.22, 421.59 -1.67" stroke="#1e1e1e" stroke-width="2" fill="none"></path></g></g><mask></mask><g stroke-linecap="round" transform="translate(1399.343329782575 555.3370318963131) rotate(0 133.04687148565995 135.36490533914787)"><path d="M32 0 C76.68 1, 118.62 -0.04, 234.09 0 M32 0 C96.98 1.62, 162.18 1.45, 234.09 0 M234.09 0 C255.61 -1.83, 265.83 9.64, 266.09 32 M234.09 0 C256.89 -2.07, 264.96 9.74, 266.09 32 M266.09 32 C265.92 102.99, 266.31 176.69, 266.09 238.73 M266.09 32 C267.11 109.77, 266.46 185.81, 266.09 238.73 M266.09 238.73 C268.08 258.09, 255.94 271.49, 234.09 270.73 M266.09 238.73 C264.76 261.63, 253.5 269.88, 234.09 270.73 M234.09 270.73 C184.83 271.67, 138.98 270.23, 32 270.73 M234.09 270.73 C191.31 271.48, 150.43 271.84, 32 270.73 M32 270.73 C10.55 270.51, -0.54 261.77, 0 238.73 M32 270.73 C12.07 272.42, 0.54 262.02, 0 238.73 M0 238.73 C-0.71 182.33, 1.98 124.37, 0 32 M0 238.73 C0.9 155.68, 1.1 74.41, 0 32 M0 32 C0.62 12.56, 10.02 1.94, 32 0 M0 32 C-1.4 9.17, 9.63 1.3, 32 0" stroke="#1e1e1e" stroke-width="2" fill="none"></path></g><g transform="translate(1404.343329782575 560.3370318963131) rotate(0 126.5625 86.39999999999998)"><text x="0" y="0" font-family="Cascadia, Segoe UI Emoji" font-size="16px" fill="#1e1e1e" text-anchor="start" style="white-space: pre;" direction="ltr" dominant-baseline="text-before-edge"></text><text x="0" y="19.2" font-family="Cascadia, Segoe UI Emoji" font-size="16px" fill="#1e1e1e" text-anchor="start" style="white-space: pre;" direction="ltr" dominant-baseline="text-before-edge"></text><text x="0" y="38.4" font-family="Cascadia, Segoe UI Emoji" font-size="16px" fill="#1e1e1e" text-anchor="start" style="white-space: pre;" direction="ltr" dominant-baseline="text-before-edge"></text><text x="0" y="57.599999999999994" font-family="Cascadia, Segoe UI Emoji" font-size="16px" fill="#1e1e1e" text-anchor="start" style="white-space: pre;" direction="ltr" dominant-baseline="text-before-edge">- on backlog item change </text><text x="0" y="76.8" font-family="Cascadia, Segoe UI Emoji" font-size="16px" fill="#1e1e1e" text-anchor="start" style="white-space: pre;" direction="ltr" dominant-baseline="text-before-edge">(8):</text><text x="0" y="96" font-family="Cascadia, Segoe UI Emoji" font-size="16px" fill="#1e1e1e" text-anchor="start" style="white-space: pre;" direction="ltr" dominant-baseline="text-before-edge"> -&gt; create/update replica </text><text x="0" y="115.19999999999999" font-family="Cascadia, Segoe UI Emoji" font-size="16px" fill="#1e1e1e" text-anchor="start" style="white-space: pre;" direction="ltr" dominant-baseline="text-before-edge">set (9)</text><text x="0" y="134.4" font-family="Cascadia, Segoe UI Emoji" font-size="16px" fill="#1e1e1e" text-anchor="start" style="white-space: pre;" direction="ltr" dominant-baseline="text-before-edge"> -&gt; remove claim if pod is </text><text x="0" y="153.6" font-family="Cascadia, Segoe UI Emoji" font-size="16px" fill="#1e1e1e" text-anchor="start" style="white-space: pre;" direction="ltr" dominant-baseline="text-before-edge">not existing anymore (10)</text></g><g stroke-linecap="round"><g transform="translate(1270.553557146247 670.2289510450829) rotate(0 63.639911326967194 0.8341108832280497)"><path d="M-1.1 0.87 C20.45 1.33, 107.06 2.46, 128.31 2.45 M0.52 0.29 C22.09 0.43, 106.52 0.5, 127.91 0.73" stroke="#1e1e1e" stroke-width="2" fill="none"></path></g><g transform="translate(1270.553557146247 670.2289510450829) rotate(0 63.639911326967194 0.8341108832280497)"><path d="M104.37 9.16 C110.91 9.28, 115.81 4.31, 127.91 0.73 M104.37 9.16 C109.69 8.01, 115.69 6.22, 127.91 0.73" stroke="#1e1e1e" stroke-width="2" fill="none"></path></g><g transform="translate(1270.553557146247 670.2289510450829) rotate(0 63.639911326967194 0.8341108832280497)"><path d="M104.46 -7.94 C110.93 -4.14, 115.81 -5.44, 127.91 0.73 M104.46 -7.94 C109.63 -5.18, 115.6 -3.05, 127.91 0.73" stroke="#1e1e1e" stroke-width="2" fill="none"></path></g></g><mask></mask><g transform="translate(1292.772098939226 603.9435189394766) rotate(0 32.8125 28.799999999999955)"><text x="32.8125" y="0" font-family="Cascadia, Segoe UI Emoji" font-size="16px" fill="#1e1e1e" text-anchor="middle" style="white-space: pre;" direction="ltr" dominant-baseline="text-before-edge">watch</text><text x="32.8125" y="19.2" font-family="Cascadia, Segoe UI Emoji" font-size="16px" fill="#1e1e1e" text-anchor="middle" style="white-space: pre;" direction="ltr" dominant-baseline="text-before-edge">updates</text><text x="32.8125" y="38.4" font-family="Cascadia, Segoe UI Emoji" font-size="16px" fill="#1e1e1e" text-anchor="middle" style="white-space: pre;" direction="ltr" dominant-baseline="text-before-edge">(8)</text></g><g transform="translate(347.6859905476176 384.59720740089244) rotate(0 56.25 19.19999999999999)"><text x="0" y="0" font-family="Cascadia, Segoe UI Emoji" font-size="16px" fill="#1e1e1e" text-anchor="start" style="white-space: pre;" direction="ltr" dominant-baseline="text-before-edge">retrieve all</text><text x="0" y="19.2" font-family="Cascadia, Segoe UI Emoji" font-size="16px" fill="#1e1e1e" text-anchor="start" style="white-space: pre;" direction="ltr" dominant-baseline="text-before-edge">CS (3)</text></g><g transform="translate(585.4153192679923 437.17265620796354) rotate(0 60.9375 9.600000000000023)"><text x="60.9375" y="0" font-family="Cascadia, Segoe UI Emoji" font-size="16px" fill="#1e1e1e" text-anchor="middle" style="white-space: pre;" direction="ltr" dominant-baseline="text-before-edge">update CS (6)</text></g><g transform="translate(1425.6484149991466 561.1424328865395) rotate(0 105.46875 24)"><text x="105.46875" y="0" font-family="Cascadia, Segoe UI Emoji" font-size="20px" fill="#1e1e1e" text-anchor="middle" style="white-space: pre;" direction="ltr" dominant-baseline="text-before-edge">backlog controller</text><text x="105.46875" y="24" font-family="Cascadia, Segoe UI Emoji" font-size="20px" fill="#1e1e1e" text-anchor="middle" style="white-space: pre;" direction="ltr" dominant-baseline="text-before-edge">(k8s controller)</text></g><g stroke-linecap="round"><g transform="translate(9.43604381084424 1078.0944218669474) rotate(0 1204.305191874785 7.523344545631744)"><path d="M0.56 -0.47 C401.95 2.27, 2007.34 12.98, 2408.55 15.64" stroke="#1e1e1e" stroke-width="2.5" fill="none" stroke-dasharray="8 10"></path></g></g><mask></mask><g transform="translate(2428.221496155104 1065.0826045021695) rotate(0 93.75 24)"><text x="0" y="0" font-family="Cascadia, Segoe UI Emoji" font-size="20px" fill="#1e1e1e" text-anchor="start" style="white-space: pre;" direction="ltr" dominant-baseline="text-before-edge">access via</text><text x="0" y="24" font-family="Cascadia, Segoe UI Emoji" font-size="20px" fill="#1e1e1e" text-anchor="start" style="white-space: pre;" direction="ltr" dominant-baseline="text-before-edge">delivery service</text></g><g stroke-linecap="round" transform="translate(1846.5804286290581 563.4230798365026) rotate(0 133.04687148565972 114.76827297394107)"><path d="M32 0 C95.7 0.2, 157.09 0.16, 234.09 0 M32 0 C84.01 0.34, 138.36 1.05, 234.09 0 M234.09 0 C255.73 0.2, 267.02 11.46, 266.09 32 M234.09 0 C253.56 -0.91, 268.25 9, 266.09 32 M266.09 32 C264.37 90.03, 264.52 148.42, 266.09 197.54 M266.09 32 C266.56 71.74, 266.28 111.83, 266.09 197.54 M266.09 197.54 C265.74 217.35, 255.57 228.68, 234.09 229.54 M266.09 197.54 C267.38 220.42, 257.07 228.79, 234.09 229.54 M234.09 229.54 C175.46 230.54, 118.46 228.81, 32 229.54 M234.09 229.54 C191.94 229.31, 149.33 228.08, 32 229.54 M32 229.54 C9.81 227.93, -1.08 218.13, 0 197.54 M32 229.54 C8.99 230.22, -0.44 219.68, 0 197.54 M0 197.54 C-2.32 156.84, -0.1 114.52, 0 32 M0 197.54 C-1.01 160.98, -1.24 125.68, 0 32 M0 32 C-1.79 9.61, 10.09 -0.28, 32 0 M0 32 C-0.09 11.51, 12.06 1.39, 32 0" stroke="#1e1e1e" stroke-width="2" fill="none"></path></g><g transform="translate(1851.5804286290581 568.4230798365026) rotate(0 126.5625 105.60000000000002)"><text x="0" y="0" font-family="Cascadia, Segoe UI Emoji" font-size="16px" fill="#1e1e1e" text-anchor="start" style="white-space: pre;" direction="ltr" dominant-baseline="text-before-edge"></text><text x="0" y="19.2" font-family="Cascadia, Segoe UI Emoji" font-size="16px" fill="#1e1e1e" text-anchor="start" style="white-space: pre;" direction="ltr" dominant-baseline="text-before-edge"></text><text x="0" y="38.4" font-family="Cascadia, Segoe UI Emoji" font-size="16px" fill="#1e1e1e" text-anchor="start" style="white-space: pre;" direction="ltr" dominant-baseline="text-before-edge"></text><text x="0" y="57.599999999999994" font-family="Cascadia, Segoe UI Emoji" font-size="16px" fill="#1e1e1e" text-anchor="start" style="white-space: pre;" direction="ltr" dominant-baseline="text-before-edge">- read and claim backlog </text><text x="0" y="76.8" font-family="Cascadia, Segoe UI Emoji" font-size="16px" fill="#1e1e1e" text-anchor="start" style="white-space: pre;" direction="ltr" dominant-baseline="text-before-edge">item with highest priority </text><text x="0" y="96" font-family="Cascadia, Segoe UI Emoji" font-size="16px" fill="#1e1e1e" text-anchor="start" style="white-space: pre;" direction="ltr" dominant-baseline="text-before-edge">(11)</text><text x="0" y="115.19999999999999" font-family="Cascadia, Segoe UI Emoji" font-size="16px" fill="#1e1e1e" text-anchor="start" style="white-space: pre;" direction="ltr" dominant-baseline="text-before-edge">- create/update/delete </text><text x="0" y="134.4" font-family="Cascadia, Segoe UI Emoji" font-size="16px" fill="#1e1e1e" text-anchor="start" style="white-space: pre;" direction="ltr" dominant-baseline="text-before-edge">issue (14)</text><text x="0" y="153.6" font-family="Cascadia, Segoe UI Emoji" font-size="16px" fill="#1e1e1e" text-anchor="start" style="white-space: pre;" direction="ltr" dominant-baseline="text-before-edge">- delete backlog item and </text><text x="0" y="172.79999999999998" font-family="Cascadia, Segoe UI Emoji" font-size="16px" fill="#1e1e1e" text-anchor="start" style="white-space: pre;" direction="ltr" dominant-baseline="text-before-edge">continue with first step </text><text x="0" y="192" font-family="Cascadia, Segoe UI Emoji" font-size="16px" fill="#1e1e1e" text-anchor="start" style="white-space: pre;" direction="ltr" dominant-baseline="text-before-edge">(15)</text></g><g transform="translate(1858.0468201676636 571.1646091169938) rotate(0 123.046875 24)"><text x="123.046875" y="0" font-family="Cascadia, Segoe UI Emoji" font-size="20px" fill="#1e1e1e" text-anchor="middle" style="white-space: pre;" direction="ltr" dominant-baseline="text-before-edge">issue replicator wor-</text><text x="123.046875" y="24" font-family="Cascadia, Segoe UI Emoji" font-size="20px" fill="#1e1e1e" text-anchor="middle" style="white-space: pre;" direction="ltr" dominant-baseline="text-before-edge">ker (k8s replica set)</text></g><g mask="url(#mask-oc4GYjpK87ZVPwz-2_I5h)" stroke-linecap="round"><g transform="translate(1668.8195661086493 712.5346124858471) rotate(0 87.95462329375891 -8.883811811924602)"><path d="M-0.96 -0.36 C28.27 -3.28, 146.98 -15.49, 176.29 -18.5 M0.73 -1.6 C29.76 -4.29, 146.13 -14.71, 175.55 -17.34" stroke="#1e1e1e" stroke-width="2" fill="none"></path></g><g transform="translate(1668.8195661086493 712.5346124858471) rotate(0 87.95462329375891 -8.883811811924602)"><path d="M152.91 -6.73 C160.88 -9.88, 168.75 -16.19, 175.55 -17.34 M152.91 -6.73 C157.49 -9.53, 164.31 -11.32, 175.55 -17.34" stroke="#1e1e1e" stroke-width="2" fill="none"></path></g><g transform="translate(1668.8195661086493 712.5346124858471) rotate(0 87.95462329375891 -8.883811811924602)"><path d="M151.39 -23.76 C159.78 -20.52, 168.22 -20.44, 175.55 -17.34 M151.39 -23.76 C156.46 -22.36, 163.67 -19.93, 175.55 -17.34" stroke="#1e1e1e" stroke-width="2" fill="none"></path></g></g><mask id="mask-oc4GYjpK87ZVPwz-2_I5h"><rect x="0" y="0" fill="#fff" width="1944.728812696167" height="830.3022361096963"></rect><rect x="1714.586689402408" y="694.0508006739226" fill="#000" width="84.375" height="19.20000000000008" opacity="1"></rect></mask><g transform="translate(1714.5866894024084 694.0508006739226) rotate(0 41.89963881745939 9.052857580035948)"><text x="42.1875" y="0" font-family="Cascadia, Segoe UI Emoji" font-size="16.000000000000068px" fill="#1e1e1e" text-anchor="middle" style="white-space: pre;" direction="ltr" dominant-baseline="text-before-edge">scale (9)</text></g><g transform="translate(719.0314865195555 567.2895953275726) rotate(0 145.3125 48)"><text x="145.3125" y="0" font-family="Cascadia, Segoe UI Emoji" font-size="16px" fill="#1e1e1e" text-anchor="middle" style="white-space: pre;" direction="ltr" dominant-baseline="text-before-edge">create backlog item</text><text x="145.3125" y="19.2" font-family="Cascadia, Segoe UI Emoji" font-size="16px" fill="#1e1e1e" text-anchor="middle" style="white-space: pre;" direction="ltr" dominant-baseline="text-before-edge">for bdba if CS was</text><text x="145.3125" y="38.4" font-family="Cascadia, Segoe UI Emoji" font-size="16px" fill="#1e1e1e" text-anchor="middle" style="white-space: pre;" direction="ltr" dominant-baseline="text-before-edge">just created (priority HIGH) or</text><text x="145.3125" y="57.599999999999994" font-family="Cascadia, Segoe UI Emoji" font-size="16px" fill="#1e1e1e" text-anchor="middle" style="white-space: pre;" direction="ltr" dominant-baseline="text-before-edge">rescan interval</text><text x="145.3125" y="76.8" font-family="Cascadia, Segoe UI Emoji" font-size="16px" fill="#1e1e1e" text-anchor="middle" style="white-space: pre;" direction="ltr" dominant-baseline="text-before-edge">passed (priority LOW) (6)</text></g><g transform="translate(682.4590919098059 683.0261667869723) rotate(0 182.8125 57.60000000000002)"><text x="182.8125" y="0" font-family="Cascadia, Segoe UI Emoji" font-size="16px" fill="#1e1e1e" text-anchor="middle" style="white-space: pre;" direction="ltr" dominant-baseline="text-before-edge">create backlog item</text><text x="182.8125" y="19.2" font-family="Cascadia, Segoe UI Emoji" font-size="16px" fill="#1e1e1e" text-anchor="middle" style="white-space: pre;" direction="ltr" dominant-baseline="text-before-edge">for issue replicator if CS was</text><text x="182.8125" y="38.4" font-family="Cascadia, Segoe UI Emoji" font-size="16px" fill="#1e1e1e" text-anchor="middle" style="white-space: pre;" direction="ltr" dominant-baseline="text-before-edge">just created (priority HIGH), number</text><text x="182.8125" y="57.599999999999994" font-family="Cascadia, Segoe UI Emoji" font-size="16px" fill="#1e1e1e" text-anchor="middle" style="white-space: pre;" direction="ltr" dominant-baseline="text-before-edge">of findings changed (priority HIGH), CS</text><text x="182.8125" y="76.8" font-family="Cascadia, Segoe UI Emoji" font-size="16px" fill="#1e1e1e" text-anchor="middle" style="white-space: pre;" direction="ltr" dominant-baseline="text-before-edge">becomes inactive (priority HIGH) or</text><text x="182.8125" y="96" font-family="Cascadia, Segoe UI Emoji" font-size="16px" fill="#1e1e1e" text-anchor="middle" style="white-space: pre;" direction="ltr" dominant-baseline="text-before-edge">interval passed (priority LOW) (6)</text></g><g mask="url(#mask-fu9O1nbYlKEa_2PBXtvef)" stroke-linecap="round"><g transform="translate(1843.8431139679524 762.6183274079089) rotate(0 -337.121109059736 49.77988100235643)"><path d="M-1 0.03 C-53.69 18.96, -203.55 116.76, -315.57 114.31 C-427.58 111.86, -613.17 6.99, -673.08 -14.67 M0.67 -1 C-52.12 18.05, -203.65 117.75, -315.96 115.72 C-428.28 113.69, -613.37 8.58, -673.23 -13.18" stroke="#1e1e1e" stroke-width="2" fill="none"></path></g><g transform="translate(1843.8431139679524 762.6183274079089) rotate(0 -337.121109059736 49.77988100235643)"><path d="M-648.3 -11.33 C-656.83 -10.43, -665.86 -10.87, -673.23 -13.18 M-648.3 -11.33 C-656.82 -12.98, -664.71 -12.36, -673.23 -13.18" stroke="#1e1e1e" stroke-width="2" fill="none"></path></g><g transform="translate(1843.8431139679524 762.6183274079089) rotate(0 -337.121109059736 49.77988100235643)"><path d="M-655.32 4.26 C-661.53 -0.13, -668.14 -5.94, -673.23 -13.18 M-655.32 4.26 C-661.44 -2.45, -667.04 -6.94, -673.23 -13.18" stroke="#1e1e1e" stroke-width="2" fill="none"></path></g></g><mask id="mask-fu9O1nbYlKEa_2PBXtvef"><rect x="0" y="0" fill="#fff" width="2618.0853320874244" height="992.1698777670231"></rect><rect x="1480.3527777517452" y="857.9739835898222" fill="#000" width="93.75" height="38.40000000000007" opacity="1"></rect></mask><g transform="translate(1480.3527777517456 857.9739835898224) rotate(0 27.20945627414585 -44.812615992910196)"><text x="46.875" y="0" font-family="Cascadia, Segoe UI Emoji" font-size="16.00000000000003px" fill="#1e1e1e" text-anchor="middle" style="white-space: pre;" direction="ltr" dominant-baseline="text-before-edge">read and</text><text x="46.875" y="19.200000000000035" font-family="Cascadia, Segoe UI Emoji" font-size="16.00000000000003px" fill="#1e1e1e" text-anchor="middle" style="white-space: pre;" direction="ltr" dominant-baseline="text-before-edge">claim (11)</text></g><g transform="translate(1475.7153748501314 908.7996949718691) rotate(0 51.5625 9.600000000000023)"><text x="51.5625" y="0" font-family="Cascadia, Segoe UI Emoji" font-size="16px" fill="#1e1e1e" text-anchor="middle" style="white-space: pre;" direction="ltr" dominant-baseline="text-before-edge">delete (15)</text></g><g stroke-linecap="round"><g transform="translate(1030.1525962245596 251.902327928182) rotate(0 -190.3167588508834 141.4310315867507)"><path d="M0.03 -0.63 C-63.18 46.49, -316.2 236.22, -379.65 283.36 M-1.41 1.65 C-64.66 48.36, -316.75 234.57, -380.08 281.49" stroke="#1e1e1e" stroke-width="2" fill="none"></path></g><g transform="translate(1030.1525962245596 251.902327928182) rotate(0 -190.3167588508834 141.4310315867507)"><path d="M-366.27 260.65 C-370.92 267.9, -372.75 271.88, -380.08 281.49 M-366.27 260.65 C-369.22 265.44, -372.65 270.45, -380.08 281.49" stroke="#1e1e1e" stroke-width="2" fill="none"></path></g><g transform="translate(1030.1525962245596 251.902327928182) rotate(0 -190.3167588508834 141.4310315867507)"><path d="M-356.1 274.4 C-363.56 277.96, -368.12 278.24, -380.08 281.49 M-356.1 274.4 C-361.57 275.86, -367.49 277.49, -380.08 281.49" stroke="#1e1e1e" stroke-width="2" fill="none"></path></g></g><mask></mask><g stroke-linecap="round"><g transform="translate(1354.2108227208787 259.9365157037222) rotate(0 -351.53034708545874 147.7413200401188)"><path d="M-0.57 0.03 C-117.75 49.15, -586.9 245.59, -703.88 294.72 M1.34 -1.01 C-115.4 48.25, -584.23 246.4, -701.61 295.85" stroke="#1e1e1e" stroke-width="2" fill="none"></path></g><g transform="translate(1354.2108227208787 259.9365157037222) rotate(0 -351.53034708545874 147.7413200401188)"><path d="M-683.29 278.84 C-687.58 281.4, -693.22 287.78, -701.61 295.85 M-683.29 278.84 C-687.34 281.85, -691.92 285.94, -701.61 295.85" stroke="#1e1e1e" stroke-width="2" fill="none"></path></g><g transform="translate(1354.2108227208787 259.9365157037222) rotate(0 -351.53034708545874 147.7413200401188)"><path d="M-676.64 294.59 C-682.49 293.4, -689.71 296.06, -701.61 295.85 M-676.64 294.59 C-682.22 293.74, -688.4 294.02, -701.61 295.85" stroke="#1e1e1e" stroke-width="2" fill="none"></path></g></g><mask></mask><g transform="translate(1037.9333822238414 266.0409106902091) rotate(0 93.75 28.80000000000001)"><text x="93.75" y="0" font-family="Cascadia, Segoe UI Emoji" font-size="16px" fill="#1e1e1e" text-anchor="middle" style="white-space: pre;" direction="ltr" dominant-baseline="text-before-edge">retrieve findings of</text><text x="93.75" y="19.2" font-family="Cascadia, Segoe UI Emoji" font-size="16px" fill="#1e1e1e" text-anchor="middle" style="white-space: pre;" direction="ltr" dominant-baseline="text-before-edge">components of</text><text x="93.75" y="38.4" font-family="Cascadia, Segoe UI Emoji" font-size="16px" fill="#1e1e1e" text-anchor="middle" style="white-space: pre;" direction="ltr" dominant-baseline="text-before-edge">interest (4)</text></g><g stroke-linecap="round"><g transform="translate(1078.801670704513 153.7938270024557) rotate(0 596.2826074237496 220.32640530905616)"><path d="M0.73 -0.51 C27.01 -16.9, -25.39 -94.4, 158.66 -99.48 C342.7 -104.56, 932.63 -127.68, 1104.99 -30.97 C1277.35 65.74, 1204.55 385.48, 1192.82 480.76 C1181.09 576.04, 1061.15 530.97, 1034.63 540.72 M-0.34 -1.82 C25.77 -18.49, -25.83 -96.74, 158.21 -101.45 C342.26 -106.16, 931.43 -127.3, 1103.93 -30.09 C1276.43 67.13, 1204.93 386.61, 1193.2 481.83 C1181.47 577.06, 1059.9 531.35, 1033.54 541.26" stroke="#1e1e1e" stroke-width="2" fill="none"></path></g><g transform="translate(1078.801670704513 153.7938270024557) rotate(0 596.2826074237496 220.32640530905616)"><path d="M1057.18 533.14 C1047.19 537.99, 1039.46 538.57, 1033.54 541.26 M1057.18 533.14 C1052.33 535.25, 1046.1 535.92, 1033.54 541.26" stroke="#1e1e1e" stroke-width="2" fill="none"></path></g><g transform="translate(1078.801670704513 153.7938270024557) rotate(0 596.2826074237496 220.32640530905616)"><path d="M1056.87 550.24 C1047.16 548.54, 1039.55 542.56, 1033.54 541.26 M1056.87 550.24 C1052.05 548.4, 1045.9 545.12, 1033.54 541.26" stroke="#1e1e1e" stroke-width="2" fill="none"></path></g></g><mask></mask><g stroke-linecap="round"><g transform="translate(1355.2375836581468 157.57396586200173) rotate(0 442.18900307308854 221.8760565079014)"><path d="M-0.67 -0.24 C17.42 -10.17, -26.16 -62.52, 108.45 -58.84 C243.05 -55.16, 677.69 -57.66, 806.94 21.83 C936.18 101.32, 891.92 337.94, 883.91 418.11 C875.91 498.28, 779.69 488.7, 758.9 502.86 M1.18 -1.41 C19.22 -11.73, -26.06 -64.56, 108.12 -60.47 C242.3 -56.38, 676.96 -56.3, 806.26 23.11 C935.56 102.51, 892.02 336.01, 883.92 415.98 C875.82 495.94, 778.75 488.6, 757.65 502.89" stroke="#1e1e1e" stroke-width="2" fill="none"></path></g><g transform="translate(1355.2375836581468 157.57396586200173) rotate(0 442.18900307308854 221.8760565079014)"><path d="M777.91 488.25 C771.66 494.4, 767.69 496.99, 757.65 502.89 M777.91 488.25 C772.27 492.12, 766.56 496.56, 757.65 502.89" stroke="#1e1e1e" stroke-width="2" fill="none"></path></g><g transform="translate(1355.2375836581468 157.57396586200173) rotate(0 442.18900307308854 221.8760565079014)"><path d="M782.58 504.69 C774.86 506.01, 769.52 503.78, 757.65 502.89 M782.58 504.69 C775.64 503.77, 768.56 503.4, 757.65 502.89" stroke="#1e1e1e" stroke-width="2" fill="none"></path></g></g><mask></mask><g transform="translate(1546.1811146689097 56.269635953274474) rotate(0 107.8125 19.19999999999999)"><text x="107.8125" y="0" font-family="Cascadia, Segoe UI Emoji" font-size="16px" fill="#1e1e1e" text-anchor="middle" style="white-space: pre;" direction="ltr" dominant-baseline="text-before-edge">retrieve findings for</text><text x="107.8125" y="19.2" font-family="Cascadia, Segoe UI Emoji" font-size="16px" fill="#1e1e1e" text-anchor="middle" style="white-space: pre;" direction="ltr" dominant-baseline="text-before-edge">all versions of CS (13)</text></g><g stroke-linecap="round"><g transform="translate(532.1160607861179 158.24083459652127) rotate(0 890.3417031654999 226.62403584610712)"><path d="M0.89 -0.06 C42.14 -20.06, -27.06 -106.84, 247.47 -120.97 C521.99 -135.09, 1392.67 -189.5, 1648.04 -84.8 C1903.41 19.89, 1790.53 397.52, 1779.68 507.21 C1768.83 616.89, 1615.66 562.25, 1582.96 573.31 M-0.1 -1.13 C40.96 -20.93, -28.78 -105.66, 246.3 -119.9 C521.38 -134.14, 1394.88 -191.22, 1650.4 -86.57 C1905.91 18.08, 1790.85 397.92, 1779.4 507.97 C1767.94 618.02, 1614.62 562.92, 1581.66 573.71" stroke="#1e1e1e" stroke-width="2" fill="none"></path></g><g transform="translate(532.1160607861179 158.24083459652127) rotate(0 890.3417031654999 226.62403584610712)"><path d="M1605.42 565.95 C1598.21 567.74, 1589.74 569.02, 1581.66 573.71 M1605.42 565.95 C1596.33 568.86, 1587.43 572.14, 1581.66 573.71" stroke="#1e1e1e" stroke-width="2" fill="none"></path></g><g transform="translate(532.1160607861179 158.24083459652127) rotate(0 890.3417031654999 226.62403584610712)"><path d="M1604.85 583.04 C1597.94 579.75, 1589.64 575.96, 1581.66 573.71 M1604.85 583.04 C1596.12 579.27, 1587.45 575.86, 1581.66 573.71" stroke="#1e1e1e" stroke-width="2" fill="none"></path></g></g><mask></mask><g transform="translate(589.513986362183 69.32012435296622) rotate(0 89.0625 28.80000000000001)"><text x="89.0625" y="0" font-family="Cascadia, Segoe UI Emoji" font-size="16px" fill="#1e1e1e" text-anchor="middle" style="white-space: pre;" direction="ltr" dominant-baseline="text-before-edge">retrieve all CS</text><text x="89.0625" y="19.2" font-family="Cascadia, Segoe UI Emoji" font-size="16px" fill="#1e1e1e" text-anchor="middle" style="white-space: pre;" direction="ltr" dominant-baseline="text-before-edge">with matching</text><text x="89.0625" y="38.4" font-family="Cascadia, Segoe UI Emoji" font-size="16px" fill="#1e1e1e" text-anchor="middle" style="white-space: pre;" direction="ltr" dominant-baseline="text-before-edge">correlation id (12)</text></g></svg>